<?xml version="1.0" encoding="UTF-8" standalone="no"?>
<!DOCTYPE svg PUBLIC "-//W3C//DTD SVG 1.1//EN" "http://www.w3.org/Graphics/SVG/1.1/DTD/svg11.dtd">
<svg width="100%" height="100%" viewBox="0 0 639 669" version="1.1" xmlns="http://www.w3.org/2000/svg" xmlns:xlink="http://www.w3.org/1999/xlink" xml:space="preserve" style="fill-rule:evenodd;clip-rule:evenodd;">
    <g transform="matrix(1,0,0,1,-153,-133)">
        <g transform="matrix(1,0,0,1,168.506,145.175)">
            <path id="BR.-AC" d="M30.47,237.77L28.39,237.73L28.72,235.09L27.22,233.9L27.35,232.3L26.58,230.35L25.49,229.71L19.89,228.46L12.55,228.27L16.2,224.22L16.27,221.79L14.76,220.44L13.08,217.49L11.41,216.86L10.28,215.73L9.36,213.35L7.36,211.82L5.51,206.56L3.63,205.48L3.55,204.31L4.36,204.41L4.78,203.89L4.65,202.8L2.53,201.87L0,199.32L1.16,197.58L1.15,196.27L4.66,195.49L4.44,194.14L3.27,192.57L21.22,200.05L57.02,208.85L83.46,223.02L111.97,235.15L114.94,236.41L110.98,239.14L108.12,241.93L106.47,242.79L104.28,242.79L104.23,243.35L100.23,245.64L98.35,248.65L97.74,248.93L95.81,248.05L92.76,248.36L89.33,253.15L84.72,255.09L81.75,255.63L81.83,253.52L71.68,252.48L66.59,252.86L65.93,252.28L63.66,252.11L60.1,253.94L57.37,254.56L55.69,253.89L54.29,252.45L52.65,253.61L53.02,231.02L54.47,228.7L53.31,228.9L48.74,232.5L46.68,234.88L44.73,235.55L44.08,236.63L42.27,237.62L30.47,237.77Z" style="fill:rgb(204,204,204);fill-rule:nonzero;stroke:white;stroke-width:0.5px;"/>
            <path id="BR.-AL" d="M561.91,230.3L561.71,229.57L558.82,228.59L558.28,227.19L560.24,225.03L562.41,224.27L565.7,219.69L566.7,220.91L569.45,221.09L573.9,225.23L577.59,226.76L580.09,226.11L584.4,226.29L586.26,225.23L587.42,225.28L589.23,224.17L593.08,220.19L595.08,219.95L597.32,220.8L601.35,219.32L606.44,220.61L603.66,225.57L595.53,234.28L592.49,238.86L589.16,241.74L586.84,245.56L586.24,244.25L578.77,239.75L577.47,237.3L572.05,234.23L568.37,233.28L561.91,230.3Z" style="fill:rgb(204,204,204);fill-rule:nonzero;stroke:white;stroke-width:0.5px;"/>
            <path id="BR.-AM" d="M165.82,47.29L167.29,48.41L169.66,48.11L169.72,49.07L170.93,50.24L174.14,50.51L176.58,52.12L174.96,56.94L177.69,60.68L179.35,65.44L179.54,67.7L180.46,69.27L178.84,70.73L179.86,73.9L178.52,77.9L178.81,82.88L179.69,85.05L181.49,86.79L182.62,91.12L181.42,93.02L179.58,92.69L179.44,93.83L184.45,98.25L186.93,99.6L189.45,103.29L191.32,102.94L193.68,103.98L193.24,101.87L193.99,99.58L193.87,96.05L194.69,93.08L195.71,91.82L199.08,90.42L199.63,89.53L201.23,89.47L204.06,90.4L205.93,92.44L206.85,94.95L208.67,95.18L211.33,93.31L213.36,92.76L213.8,91.84L212.66,90.43L212.54,89.04L213.76,85.27L217.75,78.98L217.72,78.3L236.21,78.37L236.36,86.95L238.48,88.89L238.08,91.69L239.91,93.68L240.97,93.69L242.81,94.92L243.7,98.13L248.34,101.9L252.92,104.44L254.9,106.43L264.09,110.03L265.44,111.98L268.14,113.42L269.24,115.59L271.11,116.38L273.34,115.42L273.4,116.68L275.21,118.35L245.31,182.59L242.5,186L243.29,189.46L246.32,192.17L247.68,195.96L246.3,197.77L246.31,200.38L243.83,203.69L245.05,207.85L242.49,217.29L241.28,218.02L193.43,218.34L193.11,217.26L191.72,216.98L189.8,218.06L189.26,219.8L188.58,219.99L185.34,218.51L184.66,215.63L182.6,215.35L181.35,212.08L178.81,211.1L177.48,209.83L176.23,207.43L174.08,206.3L163.29,206.36L161.91,208.92L160.19,209.42L160.28,210.59L157.54,211.34L156.35,212.93L156.3,213.6L157.37,214.75L156.2,216.92L154.14,218.13L154.27,221.4L150.4,220.94L148.27,221.32L147.07,222.39L143.98,221.72L142.23,222.98L141.7,223.82L141.96,225.57L139.42,228.73L138.06,228.28L137.04,225.93L133.9,228.16L130.68,228.92L130.14,230.17L128.92,230.96L125.52,228.28L118.69,228.35L118.7,230.2L117.15,232.01L115.23,232.59L111.97,235.15L83.46,223.02L57.02,208.85L21.22,200.05L3.27,192.57L3.9,189L5.12,187.6L10.04,184.13L12.77,183.59L13.75,182.03L13.83,181L12.09,176.51L13.65,173.13L16.27,169.58L16.28,166.52L17.26,162.17L17.99,161.42L23.84,158.56L24.99,157.52L25.43,156.12L27.62,155.64L32.81,151.98L36.74,151.84L44.25,149.49L47.58,149.87L49.51,146.83L50.6,146.22L52.74,146.42L53.38,146.96L55.8,145.98L57.51,146.1L57.8,147.81L59.41,149.1L62.24,149.18L63.28,148L71.04,105.52L72.2,102.6L71.33,97.38L70.03,96.33L68.55,93.58L69.16,91.7L68.64,89.92L63.54,86.58L61.6,84.3L61.8,72.79L65.69,72.53L67.44,71.36L70.94,70.44L73.62,72.2L76.11,71.88L75.62,70.19L75.92,68.47L73.98,65.83L72.83,65.23L71.32,65.76L68.53,65.15L64.96,65.24L64.9,55.34L69.46,54.2L72.3,55.07L91.33,55.13L90.08,54.33L89.7,53.13L90.65,51.2L92.08,51.6L93.56,54.44L95.05,54.8L96.66,54.19L100.18,50.02L102.73,48.63L104.02,49.09L108.21,56.74L108.15,63.68L111.35,62.93L120.45,70.27L122.95,70.48L125.25,69.48L129.06,66.62L131.25,66.51L132.58,67.88L132.56,68.85L131.45,70.55L132.4,71.8L133.73,71.08L135.52,67.72L137.54,67.49L138.41,64.52L143.36,62.02L144.33,62.57L145.26,62.28L146.86,61.24L147.88,59.63L149.99,58.42L152.02,58.97L154.93,56.5L155.34,52.55L156.11,51.63L160.22,50.8L162.28,49.2L165.52,48.53L165.82,47.29Z" style="fill:rgb(204,204,204);fill-rule:nonzero;stroke:white;stroke-width:0.5px;"/>
            <path id="BR.-AP" d="M344.98,99.7L341.97,100.1L339.18,99.42L337.73,98.39L337.3,96.89L335.43,95.5L335.23,91.92L333.95,91.27L333.54,90.33L333.62,87.9L330.69,84.62L329.09,84.8L327.59,81.32L327.72,79.74L325.83,75.86L326.07,70.61L323.33,69.55L321.31,67.29L320.55,64.46L321.42,63.51L320.93,62.33L320.25,62.36L317.41,59.7L316.09,60.26L313.92,60.13L311.98,58.31L310.79,58.19L309.63,56.11L307.7,55.06L303.02,54.19L300.77,54.46L300.22,52.47L300.47,47.93L301.09,46.63L300.72,44.33L300.1,43.76L301.43,43.84L301.47,45.8L303.75,45.96L304.95,47.57L310.49,49.09L316.16,45.09L316.85,46.03L319.56,46.97L322.81,45.44L324.27,46.74L324.07,47.61L326.44,47.44L328.51,48.11L332.87,45.04L334.62,42.74L334.79,41.2L337.92,34.7L338.03,32.88L339.87,31.39L343.47,25.6L343.7,24.45L346.33,21.7L346.96,20.04L350.57,17.4L350.45,13.79L354.96,17.42L356.39,19.83L356.42,21.41L356.86,21.72L357.55,21.14L357.76,21.54L357.97,29.43L358.63,33.3L361.34,39.35L364,48.29L367.32,53.29L371.59,53.56L375.67,55.35L376.44,58L376.28,61.33L372.88,63.05L375.71,62.48L376.11,63.3L375.94,64.03L370.91,68.09L369.74,70.19L367.59,71.6L365.65,75.32L362.74,78.82L359.66,79.71L357.58,82.69L356.24,82.76L354.02,85.34L351.93,89.42L348.08,93.51L347.89,97.72L345.94,99.53L344.98,99.7ZM368.34,52.71L366.79,50.52L366.86,49.64L368.74,48.78L370,51.44L368.34,52.71ZM370.83,70.32L370.35,69.36L371.46,68.26L373.58,68.36L374.48,67.61L373.56,69.64L370.83,70.32Z" style="fill:rgb(204,204,204);fill-rule:nonzero;stroke:white;stroke-width:0.5px;"/>
            <path id="BR.-BA" d="M527.5,365.33L527.14,364.5L527.81,362.61L527.28,361.57L523.15,358.52L523.21,356.5L522.64,355.27L521.23,355.9L522.58,348.2L523.4,347.32L525.87,347.56L526.89,346.85L526.33,345.42L526.49,342.77L531.45,338.55L532.92,335.47L531.73,333.28L530.11,332.84L527.28,330.37L525.16,330.39L520.71,328.71L516,328L513.21,329.48L510.03,329.24L509.59,325.28L503.07,319.08L498.3,320.14L496.77,318.9L495.33,318.89L492.79,317.67L490.62,316.05L489.64,316.23L485.29,312.6L481.46,311.31L477.81,312.46L476.37,313.75L471.04,312.28L470.43,311.79L470.17,310.29L471.61,306.66L468.48,305.68L463.3,305.06L459.47,306.64L455.21,309.67L454.57,310.78L451.2,312.65L449.18,313.05L446.42,315.78L443.99,316.15L441.1,319.5L438.25,319.25L436.22,321.16L435.82,320.92L437.25,317.49L436.74,315.08L438.47,312.34L437.57,309.35L438.33,306.79L435.12,304.17L433.43,300.71L432.81,297.19L434.05,291.81L435.87,290.39L435.93,289.45L434.19,288.28L434.67,285.76L436.08,284.33L433.36,281.87L433.32,280.94L434.68,278.56L434.47,277.07L432.06,275.93L431.95,270.91L436.01,268.1L435.14,266.95L433.19,266.84L432.75,266.01L433.17,265.05L435.77,263.79L435.73,263.03L433.85,262.05L430.27,261.38L428.41,259.42L428.18,258.5L429.69,256.62L431.21,253.14L433.48,251.87L432.38,249.7L435.59,247.08L439.41,245.06L440.88,242.95L443.21,242.93L444.65,244.27L445.84,247.52L447.6,250.01L451.78,251.87L453.58,251.35L455.69,251.53L456.77,249.87L457.91,249.5L459.75,247.74L461.96,246.99L464.77,247.69L466.12,247.27L469.09,244.85L473.01,238.03L473.18,234.31L470.94,229.88L470.99,228.95L474.23,227.3L476.18,227.28L477.68,227.74L478.41,228.85L481.92,227.87L483.25,228.25L484.96,229.24L485.02,230.18L485.84,230.46L492.02,229.6L494.35,227.04L497.08,226.7L498.67,225.36L500.84,225.37L501.78,226.05L503.64,224.24L503.54,221.84L506.32,221.63L507.37,220.97L509.33,217.51L513.58,217.93L516.4,219.32L517.49,224.5L519.7,225.41L519.97,227.41L519.05,229.09L520.88,229.71L525.53,227.69L526.8,223.24L528.97,223.66L531.36,222.64L532.46,221.4L532.38,219.45L534.91,218.75L535.68,216.7L540.45,214.7L541.94,215.26L542.77,216.7L544.13,217.51L549.48,218.68L551.06,219.83L551.99,221.75L552.7,219.86L554.14,219.41L554.61,220.36L553.99,221.24L554.95,222.44L557.05,223.3L558.29,227.29L558.83,228.69L561.72,229.67L561.92,230.39L561.25,231.55L561.46,233.69L562.74,236.19L565.48,239.29L565.4,242.41L564.66,244.91L565.42,247.66L564.43,248.79L561.88,249.79L560.75,249.04L559.04,249.03L558.15,251.68L562.15,256.95L561.83,259.15L562.55,260.09L567.05,262.7L569.94,261.82L570.95,262.22L566.87,271.05L563.04,276.24L562.01,278.57L556.98,284.31L553.66,285.56L554.47,282.88L554.02,280.95L552.15,280.7L551.04,278.64L549.71,282.43L548.6,282.52L548.11,280.78L547.62,281.22L548.55,282.91L550.54,283.25L550.08,285.06L548.87,286.21L548.62,288.03L547.02,289.67L547,291.36L545.65,290.97L545.44,291.36L545.44,293.16L546.19,293.37L546.9,296.24L545.86,298.75L546.43,302.19L545.3,302.46L545.16,303.59L545.75,304.05L546.96,302.33L546.49,300.12L547.31,299.51L547.56,300.05L545.28,311.66L547.33,327.92L548.32,331.34L546.11,338L543.06,352.24L543.36,358.99L544.25,360.7L542.01,363.68L539.26,364.99L536.54,368.88L535.9,371L527.5,365.33Z" style="fill:rgb(204,204,204);fill-rule:nonzero;stroke:white;stroke-width:0.5px;"/>
            <path id="BR.-CE" d="M573.79,156.85L568.9,158.44L566.29,160.45L562.99,167.14L561.28,168.83L560.78,171.24L559.38,173.68L557.35,176.29L555.03,176.11L552.78,179.24L552.44,181.21L553.74,181L551.79,185.69L552.31,187L550.39,189.32L550.27,190.25L551.44,191.67L551.42,193.33L553.35,194.3L553.69,195.49L551.06,200.35L548.4,201.67L546.86,203.96L545.21,204.01L544.58,202.37L542.44,201.32L540.97,199.26L536.29,196.53L531.92,196.21L528.15,197.2L522.33,196.76L522.39,195.44L521.63,193.79L524.28,187.74L523.51,186.58L519.64,185.46L518.63,182.79L516.82,175.02L516.12,166.41L515.09,165.34L515.89,164.76L516.48,163.18L514.88,158.18L515.36,156.58L514.57,152.71L515.33,150.59L513.97,149L508.29,134.84L508.47,133.38L511.25,128.76L511,127.34L511.65,126.53L518.39,126.31L523.35,125.22L530.75,126.01L545.21,134.33L546.42,134.53L551.63,138.93L554.2,139.65L556.64,142.56L557.86,143.17L560.82,146.98L564.98,150.06L567.48,153.05L572.5,154.82L573.79,156.85Z" style="fill:rgb(204,204,204);fill-rule:nonzero;stroke:white;stroke-width:0.5px;"/>
            <path id="BR.-DF" d="M416.71,333.87L402.02,333.85L401.5,330.59L402.42,328.76L402.8,325.03L414.75,325.04L416.58,327.02L415.84,332.86L416.71,333.87Z" style="fill:rgb(204,204,204);fill-rule:nonzero;stroke:white;stroke-width:0.5px;"/>
            <path id="BR.-ES" d="M501.63,411.37L502.35,407.59L501.92,404.05L503.64,401.99L509.34,401.7L510.31,398.46L512.3,394.9L512.54,393.18L515.75,389.79L516.29,386.82L516,384.39L513.63,380.31L512.66,380.51L511.41,379.52L511.84,378.97L515.09,379.26L516.36,378.6L516.19,376.88L514.67,376.12L515,372.66L512.85,370.63L514.02,368.7L516.19,367.39L518.68,368.22L518.7,367.41L517.03,365.14L520.55,364.98L522.47,364.05L524.05,363.97L527.5,365.33L535.9,371L534.66,377.21L535.5,386.95L535.19,389.42L533.7,392.6L530.4,394.59L526.98,403.19L525.27,402.38L524.98,403.66L526.33,404.18L524.39,408.42L520.94,412.26L518.84,412.65L518.04,413.88L517.56,416.52L515.68,419.67L514.06,418.61L511.07,418.98L504.23,416.84L503.56,412.13L501.63,411.37Z" style="fill:rgb(204,204,204);fill-rule:nonzero;stroke:white;stroke-width:0.5px;"/>
            <path id="BR.-GO" d="M416.71,333.87L415.84,332.86L416.58,327.02L414.75,325.04L402.8,325.03L402.42,328.76L401.5,330.59L402.02,333.85L416.71,333.87L416.18,335.39L416.49,336.96L414.36,341.27L415.21,342.48L417.48,343.85L419.13,349.01L413.57,354.73L413.14,356.87L414.23,357.98L415.13,357.51L417.18,358.69L417.19,360.4L415.95,363.19L417.14,366.65L414.05,368.71L412.89,368.91L411.55,370.93L406.66,373.67L405.96,372.9L401.61,371.04L400.48,371.61L393.39,371.5L391.38,370.61L387.25,373.25L384.34,376.17L382.7,374.75L381.18,374.45L377.99,376.09L374.28,375.47L369.57,376.97L366.17,383.83L364.06,384.09L363.12,384.83L361.48,386.93L360.91,388.83L361.46,389.78L360.24,389.55L357.34,386.86L354.19,386.25L352.57,384.7L349.18,384.23L345.83,382.89L341.41,379.87L336.13,377.31L333.35,377.47L329.55,376.77L331.48,372.25L329.23,371.35L327.43,371.83L326.92,370.31L326.99,365.96L326.04,363.76L325.86,360.33L324.29,357.43L324.69,354.02L327.24,350.17L327.62,347.26L332.26,343.88L333.51,341.86L334.34,338.9L336.44,336.43L336.52,334.89L338.27,333.92L339.67,331.3L342.32,331.17L345.36,330.03L348.05,324.88L349.07,320.04L352.64,317.09L353.71,316.83L354.94,317.51L357.54,315.35L359.55,309.55L359.06,307.61L359.64,304.87L361.24,301.78L361.12,296.6L362.33,295.82L365.36,290.02L365.59,286.23L366.91,284.47L367.1,282.71L368.3,279.15L370.67,276.76L370.64,278.47L369.42,280.35L368.9,282.69L373.5,284.12L377.43,284.52L384.59,287.66L385.22,287.43L386.85,281.49L389.5,278.13L391.69,281.32L393.41,288.13L394.55,288.18L396.16,285.89L398.92,286.23L403.45,285.7L403.11,288L406.24,289.47L409.59,290.15L410.28,290.07L410.79,286.77L411.34,286.8L413.31,289.66L417.61,286.68L423.69,285.68L427.99,283.24L433.35,281.82L436.07,284.28L434.66,285.72L434.18,288.24L435.91,289.41L435.85,290.35L434.03,291.76L432.79,297.14L433.41,300.66L435.11,304.12L438.32,306.74L437.55,309.3L438.45,312.3L436.72,315.04L435.72,316.05L432.49,315.71L431.59,313.95L429.17,312.47L428,313.96L428.58,317.73L428.01,318.27L424.83,317.26L423.29,317.77L422.57,320.95L423.29,321.05L423.78,322.21L422.48,323.85L422.52,325.75L423.47,326.55L424.16,330.81L420.27,332.24L417.98,333.75L416.71,333.87Z" style="fill:rgb(204,204,204);fill-rule:nonzero;stroke:white;stroke-width:0.5px;"/>
            <path id="BR.-MA" d="M458.57,128.92L456.07,131.57L456.03,133.01L461.7,127.37L462.73,121.04L467.31,119.16L467.77,119.28L467.64,121.36L466.22,123.23L463.01,124.98L462.98,125.7L463.71,125.82L464.16,125.01L465.31,124.7L465.19,126.34L469.4,121.37L470.26,121.7L472.84,120.77L476.88,121.2L476.42,118.79L477.03,118.56L479.45,118.64L484.9,120.17L487.05,121.55L488.45,121.58L491.61,124.2L495.27,124.59L495.83,125.35L500.23,125.96L500.49,125.06L499.82,124.59L501.49,124.21L502.06,124.32L501.97,124.74L501.51,126.17L502.37,127.43L501.99,128.96L496.07,135.2L491.95,135.5L489.03,138.9L489.07,140.7L488.19,142.53L484.07,147.58L484.43,149.5L485.66,150.33L486.04,151.61L484.62,155.95L486.2,158.76L486.65,164.17L482.34,169.14L482.17,171.62L482.8,176.03L486.36,179.48L485.19,185.64L483.98,186.95L480.21,187L477.78,187.86L476.26,187.97L472.75,185.94L468.09,186.93L463.05,192.4L460.71,193.31L457.84,195.87L455.45,196.43L453.75,197.96L447.34,199.4L445.21,201.35L443.21,209.62L441.47,212.57L439.8,217.39L438.1,218.79L437.37,220.79L438.54,225.92L440.27,228.98L439.47,230.9L439.34,237.26L438.19,239.71L437.88,242.69L435.17,240.77L431.69,240.5L430.34,238.5L429.35,235.64L427.22,234.02L427.08,232.37L428.72,230.56L428.64,230.03L424.76,228.08L423.34,223.78L420.13,222.39L423.02,219.14L422.65,217.83L424.06,213.72L425.97,212.63L429.36,212.28L428.97,210.93L429.53,205.93L427.73,204.72L423.46,205.66L421.31,207L415.12,198.97L414.24,199.04L413.4,197.6L414.01,196.41L413.65,195.19L411.86,195.22L409.93,193.89L410.11,193.18L411.87,192.52L413.62,190.48L413.9,185.52L415.67,179.36L414.78,176.71L414.99,172.99L413.88,167.99L413.04,166.96L408.42,165.5L407.47,163.45L403.38,163.6L400.6,162.09L397.78,162.56L394.62,165.05L394.13,164.97L408.84,153.14L411.19,153.37L412.36,152.45L414.34,149.13L415.89,147.96L416.51,145.08L420.07,142.3L422.42,134.51L424.38,132.97L426.68,129.76L426.95,126.66L427.74,125.85L426.7,124.27L430.38,121.18L430.75,117.16L432.86,114.88L433.84,110.25L433.41,109.72L432.42,109.88L432.2,108.77L433.34,108.62L433.91,107.88L434.46,102.11L435.7,100.63L436.57,100.39L437.44,98.57L438.78,99.55L439.23,101.39L440.42,101.51L441.19,100.15L441.8,103.08L442.79,103.12L443.15,101.69L445.69,102.18L446.19,102.87L444.76,104.57L445.45,105.82L447.15,102.24L447.6,102.24L448,103.84L446.86,105.74L446.94,108.45L447.66,108.9L449.2,107.84L448.87,106.24L450.19,104.81L451.24,104.56L453.37,105.15L454.87,104.04L454.92,104.96L453.43,106.7L454.02,107.28L455.37,106.31L455.95,107.1L455.81,108.31L457.44,110.06L458.3,109.62L459.88,110.29L460.65,112.69L460.54,113.64L458.35,116.37L458.07,117.92L460.42,115.2L461.25,115.17L462.12,115.98L462.64,117.87L462.37,119.1L461.4,119.29L459.21,121.69L457.5,128.34L458.57,128.92Z" style="fill:rgb(204,204,204);fill-rule:nonzero;stroke:white;stroke-width:0.5px;"/>
            <path id="BR.-MG" d="M527.5,365.33L524.05,363.97L522.47,364.05L520.55,364.98L517.03,365.14L518.7,367.41L518.68,368.22L516.19,367.39L514.02,368.7L512.85,370.63L515,372.66L514.67,376.12L516.19,376.88L516.36,378.6L515.09,379.26L511.84,378.97L511.41,379.52L512.66,380.51L513.63,380.31L516,384.39L516.29,386.82L515.75,389.79L512.54,393.18L512.3,394.9L510.31,398.46L509.34,401.7L503.64,401.99L501.92,404.05L502.35,407.59L501.63,411.37L499.1,413.72L497.3,414.49L498.04,415.19L493.78,424.95L493.69,425.7L495.13,425.83L495.21,426.96L483.17,432.47L481.8,432.67L481.33,432.04L478.8,431.77L475.36,432.93L471.29,432.77L464.43,436.09L461.34,435.98L455.33,438.55L454.08,439.28L451.88,439.5L446.93,442.43L442.21,442.6L442.46,441.27L441.27,441.6L441.28,444.97L440.53,445.95L439.23,446.27L438.66,445.84L435.05,446.84L434.86,446.31L431.73,446.3L429.7,442.99L430.92,442.28L430.4,440.57L426.81,438.51L426.1,436.9L426.63,435.34L426.56,428.95L428.42,426.23L429.17,422.78L425.24,421.09L421.57,421.86L420.77,419.02L419.47,417.23L419.1,415.02L418,413.66L418.19,411.72L419.77,409.13L419.37,407.58L416.91,405.76L417.77,402.38L417.57,401.34L414.3,397.99L412.15,398.92L410.5,398.14L408.12,398.25L407.57,400.31L404.79,400.99L402.17,399.11L401.16,400.36L392.98,401.04L392.04,402.71L392.31,405.25L391.9,405.69L390.71,405.17L390.7,402.39L390.09,401.04L389.27,401.18L388.19,403.25L387.03,403.55L385.82,401.45L385.63,399.12L381.77,396.91L376.49,397.63L369.65,396.59L367.17,394.9L365.67,395.51L364.24,397.2L362.32,397.57L358.95,399.81L359.26,397.19L358.67,393.98L359.66,389.8L360.24,389.55L361.46,389.78L360.91,388.83L361.48,386.93L363.12,384.83L364.06,384.09L366.17,383.83L369.57,376.97L374.28,375.47L377.99,376.09L381.18,374.45L382.7,374.75L384.34,376.17L387.25,373.25L391.38,370.61L393.39,371.5L400.48,371.61L401.61,371.04L405.96,372.9L406.66,373.67L411.55,370.93L412.89,368.91L414.05,368.71L417.14,366.65L415.95,363.19L417.19,360.4L417.18,358.69L415.13,357.51L414.23,357.98L413.14,356.87L413.57,354.73L419.13,349.01L417.48,343.85L415.21,342.48L414.36,341.27L416.49,336.96L416.18,335.39L416.71,333.87L417.98,333.75L420.27,332.24L424.16,330.81L423.47,326.55L422.52,325.75L422.48,323.85L423.78,322.21L423.29,321.05L422.57,320.95L423.29,317.77L424.83,317.26L428.01,318.27L428.58,317.73L428,313.96L429.17,312.47L431.59,313.95L432.49,315.71L435.72,316.05L436.72,315.04L437.23,317.45L435.8,320.89L436.2,321.12L438.24,319.21L441.09,319.46L443.98,316.12L446.4,315.74L449.16,313.02L451.18,312.61L454.55,310.75L455.19,309.64L459.46,306.61L463.28,305.03L468.46,305.65L471.59,306.64L470.15,310.27L470.41,311.76L471.02,312.26L476.35,313.72L477.8,312.43L481.45,311.28L485.28,312.57L489.63,316.21L490.61,316.03L492.78,317.65L495.31,318.87L496.75,318.88L498.28,320.12L503.05,319.07L509.57,325.27L510.01,329.23L513.19,329.47L515.98,327.98L520.7,328.69L525.15,330.38L527.27,330.35L530.1,332.82L531.72,333.27L532.92,335.46L531.45,338.54L526.49,342.76L526.34,345.41L526.9,346.85L525.88,347.56L523.4,347.32L522.58,348.2L521.23,355.9L522.64,355.27L523.22,356.5L523.15,358.52L527.29,361.58L527.82,362.62L527.15,364.5L527.5,365.33Z" style="fill:rgb(204,204,204);fill-rule:nonzero;stroke:white;stroke-width:0.5px;"/>
            <path id="BR.-MS" d="M358.95,399.81L358.27,402.67L354.98,403.71L351.77,407.42L350.03,408.37L349.25,412.98L345.47,417.52L345.7,420.4L342.49,425L342.56,427.06L341.12,428.09L337.73,433.43L335.78,435.3L328.22,439.83L325.38,443.59L318.86,446.68L316.5,453.72L312.73,456.08L310.8,464.82L308.42,466.38L305.87,464.05L302.46,462.16L296.13,465.37L293.55,465.8L290.18,464.69L289.71,460.42L288.49,458.77L288.26,456.3L288.77,454.96L288.04,453.73L288.04,450.86L286.55,446.15L287.11,442.46L285.54,441.37L285,438.41L283.35,436.59L277.84,436.35L275.38,434.39L274.82,432.9L273.28,433.23L271.11,435.97L270.11,435.37L267.31,436.34L263.01,435.16L259.55,435.39L255.89,434.68L255.41,433.77L253.42,433.64L252.53,434.16L250.03,433.28L250.94,426.01L250.51,423.63L252.09,420.75L252.69,414.72L251.98,410.66L251.22,409.7L250.3,410.26L249.66,407L247.66,403.11L247.31,401.28L252.1,398.1L247.9,394.24L253.28,382.82L254.4,382.76L254.12,380.63L253.38,380.5L257.27,369.01L254.18,363.16L254.21,361.25L258.08,364.07L263.7,362.1L265.75,360.1L267.77,357.15L267.86,355.98L269.26,354.53L274.18,354.68L275.84,354.17L277.19,352.92L279.21,352.43L280.48,352.63L281.24,353.78L284.03,355.03L287.3,355.85L288.35,357.73L293.88,360.57L298.4,359.94L301.58,357.68L304.02,357.75L305.61,358.79L306.15,360.41L310.28,359.63L315.9,353.62L317.24,353.49L316.01,360.1L314.21,360.8L312.55,363.63L312.51,364.62L313.81,364.73L315.55,366L326.99,365.96L326.92,370.31L327.43,371.83L329.23,371.35L331.48,372.25L329.55,376.77L333.35,377.47L336.13,377.31L341.41,379.87L345.83,382.89L349.18,384.23L352.57,384.7L354.19,386.25L357.34,386.86L360.24,389.55L359.66,389.8L358.67,393.98L359.26,397.19L358.95,399.81Z" style="fill:rgb(204,204,204);fill-rule:nonzero;stroke:white;stroke-width:0.5px;"/>
            <path id="BR.-MT" d="M206.96,296.05L212.54,292.05L214.49,285.82L215.42,284.74L217.49,283.8L218.59,280.71L220.25,278.7L220.88,274.75L220.34,271.21L218.81,267.87L217.33,267.39L216.9,264.14L217.04,262.82L218.4,261.74L219.97,259.24L218.56,255.65L216.38,255.11L212.88,255.2L211.66,254.09L211.9,253.53L194.74,253.48L195.64,244.48L194.14,241.73L193.87,239.97L194.9,235.65L194.52,233.72L195.46,232.05L194.48,228.39L193.38,226.96L195.43,220.55L194.83,219.31L193.43,218.34L241.28,218.02L242.49,217.29L245.05,207.85L243.83,203.69L246.31,200.38L246.3,197.77L247.68,195.96L251.3,201.1L253.07,206.82L255.16,210.37L254.93,212.81L256.14,217.41L260.67,221.27L264.05,222.97L264.47,225.5L267.87,226.18L268.96,228.3L270.33,227.85L274.02,229.34L308.06,231.76L371.03,235.24L369.82,238.15L368.72,239.4L368.28,242.54L365.54,248.95L364.96,254.87L363.08,260.86L363.14,261.72L364.53,263.06L363.5,265.32L364.6,267.57L364.14,272.45L364.66,273.03L365.1,276.08L364.36,278.84L365.34,282.18L367.1,282.71L366.91,284.47L365.59,286.23L365.36,290.02L362.33,295.82L361.12,296.6L361.24,301.78L359.64,304.87L359.06,307.61L359.55,309.55L357.54,315.35L354.94,317.51L353.71,316.83L352.64,317.09L349.07,320.04L348.05,324.88L345.36,330.03L342.32,331.17L339.67,331.3L338.27,333.92L336.52,334.89L336.44,336.43L334.34,338.9L333.51,341.86L332.26,343.88L327.62,347.26L327.24,350.17L324.69,354.02L324.29,357.43L325.86,360.33L326.04,363.76L326.99,365.96L315.55,366L313.81,364.73L312.51,364.62L312.55,363.63L314.21,360.8L316.01,360.1L317.24,353.49L315.9,353.62L310.28,359.63L306.15,360.41L305.61,358.79L304.02,357.75L301.58,357.68L298.4,359.94L293.88,360.57L288.35,357.73L287.3,355.85L284.03,355.03L281.24,353.78L280.48,352.63L279.21,352.43L277.19,352.92L275.84,354.17L274.18,354.68L269.26,354.53L267.86,355.98L267.77,357.15L265.75,360.1L263.7,362.1L258.08,364.07L254.21,361.25L253.23,359.78L253.77,359.07L251.33,356.92L249.53,357.5L243.7,353.63L242.37,344.15L244.39,341.42L244.68,337.75L243.72,337.81L242.94,338.57L216.08,337.49L215.03,324.84L209.66,318.71L214.54,318.65L214.19,311.1L211.06,303.81L212.58,300.92L211.14,297.99L208.03,296.95L206.96,296.05Z" style="fill:rgb(204,204,204);fill-rule:nonzero;stroke:white;stroke-width:0.5px;"/>
            <path id="BR.-PA" d="M371.03,235.24L308.06,231.76L274.02,229.34L270.33,227.85L268.96,228.3L267.87,226.18L264.47,225.5L264.05,222.97L260.67,221.27L256.14,217.4L254.93,212.81L255.16,210.37L253.07,206.81L251.31,201.09L247.69,195.95L246.34,192.16L243.31,189.45L242.5,186L245.31,182.59L275.21,118.35L273.4,116.68L273.34,115.42L271.1,116.37L269.23,115.59L268.13,113.42L265.44,111.97L264.09,110.03L254.9,106.43L252.92,104.44L248.34,101.9L243.7,98.13L242.81,94.92L240.97,93.69L239.91,93.68L238.08,91.7L238.48,88.9L236.36,86.96L236.2,78.38L234.61,61.41L236.22,63.19L237.14,63.47L238.98,61.95L241.69,62.18L242.5,61.13L241.96,59.32L243.75,58.96L245.16,57.33L247.8,58.34L249.68,58.37L250.22,56.85L253.55,55.23L255.52,55.62L257.16,55.26L258.76,52.38L260.22,51.28L261.73,51.63L263.84,50.5L265.34,52.05L267.37,52.53L268.98,52.78L271.2,51.79L273.66,51.71L281.54,53.25L282.54,52.38L282.51,50.1L280.44,47.6L279.2,46.97L279.69,45.29L281.59,42.57L285.48,44.63L297.1,42.3L298.67,43.99L300.13,43.76L300.75,44.33L301.12,46.63L300.5,47.93L300.25,52.47L300.8,54.46L303.05,54.19L307.73,55.06L309.66,56.11L310.82,58.19L312.01,58.31L313.95,60.13L316.12,60.26L317.44,59.7L320.28,62.36L320.96,62.33L321.45,63.51L320.58,64.46L321.34,67.29L323.36,69.55L326.1,70.61L325.86,75.86L327.75,79.74L327.62,81.32L329.12,84.8L330.72,84.62L333.65,87.9L333.57,90.33L333.98,91.27L335.26,91.92L335.46,95.5L337.33,96.89L337.76,98.39L339.21,99.42L342,100.1L345.01,99.7L344.48,100.44L344.6,102.56L343.31,103.67L341.92,103.84L339.92,102.72L336.17,104.85L332.39,106.15L332.43,106.73L338.89,105.67L339.9,106.79L339.28,107.95L340.21,108.11L341.07,107.11L344.29,106.53L348.71,103.62L352.05,102.45L358.51,98.08L359.17,97.36L359.13,96.28L361.35,96.07L361.76,96.28L362.14,100.08L361.62,102.66L361.95,104.28L364.07,107.24L364.25,109.35L361.95,111.31L359.26,110.27L357.06,110.1L354.93,109.06L354.67,107.94L353.79,107.41L351.51,111.23L350.9,113.6L352.07,117.21L352.99,117.83L351.98,116.69L351.67,113.48L354.24,109.26L356.55,110.44L359.19,113.34L358.94,115.36L358.2,115.91L358.6,118.24L359.12,119.37L361.5,120.76L358.96,118.16L359.3,113.96L360.12,112.77L361.55,113.5L362.38,114.7L362.29,115.49L363.49,116.35L361.83,112.27L364.09,109.95L367.64,110.68L367.98,111.24L367.37,111.83L368.17,112.14L374.62,110.1L377.14,111.37L380.31,110.95L383.38,108.95L385.89,108.51L383.67,114.78L382.38,116.89L382.95,119.2L382.63,121.67L383.51,120.48L383.52,119.08L386.19,112.89L387.31,111.33L390.74,110.44L395.01,104.68L395.8,105.17L396.42,104.71L398.04,107.05L399.23,107.64L398.82,106.15L399.44,105.14L398.4,104.76L398.38,102.12L400.59,102.32L401.66,99.22L401.01,97.16L402.18,95.35L405.02,92.87L406.5,93.93L409.89,91.78L410.39,92.8L410.07,93.47L411.14,93.31L412.95,91.76L415.3,94.5L415.39,93.56L414.29,92.75L414.34,91.13L417.06,91.19L420.49,93.58L422.14,92.8L422.67,94.94L422.14,95.84L423.06,95.32L424.22,92.97L424.78,94.97L427.29,94.71L427.74,95.36L428.2,97.04L427.6,97.99L428.45,97.49L430.6,97.99L434.13,96.75L433.08,100.17L435.14,99.06L435.77,100.68L434.53,102.16L433.98,107.93L433.41,108.67L432.27,108.82L432.49,109.93L433.48,109.77L433.91,110.3L432.93,114.93L430.82,117.21L430.45,121.23L426.77,124.32L427.81,125.9L427.02,126.71L426.75,129.81L424.45,133.02L422.49,134.56L420.14,142.35L416.58,145.13L415.96,148.01L414.41,149.18L412.43,152.5L411.26,153.42L408.91,153.19L394.2,165.02L394.69,165.1L396.98,165.91L400.14,165.78L401.16,167.44L403.69,169.06L403.28,170.36L401.3,171.08L401.39,172.49L402.4,173.83L401.48,176.58L399.38,177.53L399.23,180.53L397.93,180.68L396.42,182.02L395.57,183.29L395.48,185.3L389.56,187.65L386.9,189.77L387.39,194.63L384.55,198.98L385.31,200.82L387.88,203.18L387.22,207.22L385.46,212.37L384.38,213.18L381.56,218.95L378.41,220.88L373.83,227.16L372.7,231.62L371.03,235.24ZM392.19,104.93L387.67,106.89L384.28,107.41L382.26,107.1L381.61,108.23L379.77,109.42L378.63,108.79L377.57,110L373.8,108.36L373,109.08L368.81,110.34L365.61,109.77L364.8,109.16L364.33,106.9L362.15,104.28L361.94,102.5L362.46,99.75L363.08,99.37L364.84,99.73L365.77,98.98L365.85,98.42L363.33,98.72L362.39,98.01L362.21,96.96L362.55,91.88L363.28,91.12L363.63,91.87L364.21,91.77L363.31,89.61L364.56,85.96L366.86,84.06L369.52,83.44L380.19,85.74L383.89,85.28L385.14,84.36L387.3,83.99L399.47,85.95L400.1,86.42L400.05,87.65L398.67,89.89L397.46,95.84L396.17,96.52L396.05,98.4L394.07,100.98L392.19,104.93ZM344.98,104.76L344.23,104.25L345.33,102L345.24,100.21L347.82,99.52L348.72,98.66L348.68,95.83L349.54,93.25L353.09,90.29L355.96,90.09L356.68,92.45L354.73,97.68L351.51,101.1L346.57,104.41L344.98,104.76ZM373.46,81.86L369.19,81.52L368.53,78.92L371.93,78.54L374.12,77.25L378.93,76.65L380.38,77.59L380.2,78.61L377.64,80L375.86,82.48L374.76,83L373.46,81.86ZM378.25,81.86L380.11,80.66L382.09,80.69L383.74,81.31L384.33,82.92L383.45,83.69L379.43,84.28L377.17,83.39L376.97,82.86L378.25,81.86ZM361.27,86.25L358.63,85.34L359.48,83.26L363.76,81.95L365.08,82.03L365.88,82.71L361.27,86.25ZM370.69,76.56L369.87,76.26L369.85,74.01L371.02,72.7L373.73,71.89L374.3,73.46L370.69,76.56ZM356.86,96.78L357.95,92.63L360.54,90.94L361.95,90.8L361.79,92.59L360.23,93.03L356.86,96.78ZM367.77,79.21L366.28,78.42L367.16,77.46L367.87,73.51L368.76,72.28L369.7,77.08L367.77,79.21ZM352.96,89.4L352.82,88.6L355.32,84.99L357.5,83.79L356.9,86.28L352.96,89.4ZM366.83,82.37L365.4,81.51L364.44,79.87L365.43,78.63L367.57,79.9L367.81,81.99L366.83,82.37ZM361.45,112.93L359.93,112.31L359.24,112.77L358.49,112.49L356.81,110.75L356.81,110.14L358.09,110.13L361.15,111.45L361.45,112.93ZM340.3,107.39L340.15,106.06L340.75,105.07L343.11,104.19L344.76,105.43L343.44,106.25L340.9,106.66L340.3,107.39ZM353,100.7L353.37,99.37L355.16,97.75L355.87,94.91L356.19,96.87L355.3,99.6L353,100.7ZM359.3,90.8L360.95,87.84L362.53,87.82L362.8,88.69L362.22,89.4L359.3,90.8ZM357.24,90.3L356.7,90.1L357.02,88.06L358.57,86.3L359.85,87.42L358.3,88.06L357.24,90.3ZM359.47,95.33L360.19,95.36L358.86,96.12L358.75,97.24L356.27,98.8L356.85,97.16L358.58,95.49L359.47,95.33Z" style="fill:rgb(204,204,204);fill-rule:nonzero;stroke:white;stroke-width:0.5px;"/>
            <path id="BR.-PB" d="M610.43,199.15L607.93,197.09L604.46,196.62L602.15,197.69L600.67,198.97L600.22,200.77L598.32,201.8L595.17,202.23L594.37,203.36L588.31,203.39L586.15,204.91L584.33,205.01L582.9,206.46L583.3,207.73L582.9,208.21L581.12,209.74L578.13,210.74L575.58,209.01L575.29,205.98L574.15,205.66L572.2,206.2L574.94,202.68L574.22,200.81L574.55,199.56L577.66,198.19L577.16,196.8L573.66,194.88L569.96,196.55L569.03,198.06L566.5,199.24L562.28,202.76L558.02,203.96L557.25,203.63L556.67,201.71L553.85,202.68L552.86,202.35L551.06,200.35L553.69,195.49L553.35,194.3L551.42,193.33L551.44,191.67L550.27,190.25L550.39,189.32L552.31,187L551.79,185.69L553.74,181L554.31,180.54L556.24,182.18L560.02,183.21L565.23,179.71L565.74,177.72L574.25,175.43L574.78,175.87L574.79,177.06L571.8,180.27L570.98,182.97L569.51,183.91L569.43,185.63L572.96,186.15L573.88,187.99L577.03,186.73L580.75,186.95L581.64,188.12L581.12,189.66L581.95,190.4L584.3,189.47L584.8,188.73L585.35,187.52L584.72,185.16L585.2,184.57L586.21,184.89L584.96,182.58L585.27,181.1L587.09,179.75L588.47,179.7L589.41,181.58L593.36,182.33L599.19,181.94L603.82,183.34L609.29,182.91L609.38,185.31L610.83,189.7L610.31,192.61L611.4,190.37L611.41,192.35L612,193.36L611.73,198.54L611.37,199.14L610.43,199.15Z" style="fill:rgb(204,204,204);fill-rule:nonzero;stroke:white;stroke-width:0.5px;"/>
            <path id="BR.-PE" d="M558.28,227.19L557.05,223.21L554.94,222.35L553.99,221.15L554.6,220.26L554.13,219.32L552.7,219.77L551.98,221.66L551.05,219.75L549.47,218.6L544.12,217.43L542.77,216.62L541.94,215.18L540.45,214.62L535.68,216.63L534.91,218.68L532.39,219.38L532.47,221.33L531.37,222.57L528.98,223.6L526.81,223.18L525.54,227.62L520.89,229.65L519.05,229.03L519.97,227.35L519.71,225.35L517.5,224.44L516.4,219.26L513.59,217.88L509.33,217.45L511.95,216.18L514.46,213.6L517.72,211.99L521.61,208.12L522.35,206.36L522.41,204.09L520.5,201.97L520.57,199.78L519.91,197.7L520.54,196.92L522.33,196.76L528.15,197.2L531.92,196.21L536.29,196.53L540.97,199.26L542.44,201.32L544.58,202.37L545.21,204.01L546.86,203.96L548.4,201.67L551.06,200.35L552.86,202.35L553.85,202.68L556.67,201.71L557.25,203.63L558.02,203.96L562.28,202.76L566.5,199.24L569.03,198.06L569.96,196.55L573.66,194.88L577.16,196.8L577.66,198.19L574.55,199.56L574.22,200.81L574.94,202.68L572.2,206.2L574.15,205.66L575.29,205.98L575.58,209.01L578.13,210.74L581.12,209.74L582.9,208.21L583.3,207.73L582.9,206.46L584.33,205.01L586.15,204.91L588.31,203.39L594.37,203.36L595.17,202.23L598.32,201.8L600.22,200.77L600.67,198.97L602.15,197.69L604.46,196.62L607.93,197.09L610.43,199.15L611.31,199.38L611.86,200.6L610.48,202.87L611.65,205.28L606.44,220.61L601.35,219.32L597.32,220.8L595.08,219.95L593.08,220.19L589.23,224.17L587.42,225.28L586.26,225.23L584.4,226.29L580.09,226.11L577.59,226.76L573.9,225.23L569.45,221.09L566.7,220.91L565.7,219.69L562.41,224.27L560.24,225.03L558.28,227.19Z" style="fill:rgb(204,204,204);fill-rule:nonzero;stroke:white;stroke-width:0.5px;"/>
            <path id="BR.-PI" d="M505.7,126.91L509.94,127.31L511.25,128.76L508.47,133.38L508.29,134.84L513.97,149L515.33,150.59L514.57,152.71L515.36,156.58L514.88,158.18L516.48,163.18L515.89,164.76L515.09,165.34L516.12,166.41L516.82,175.02L518.63,182.79L519.64,185.46L523.51,186.58L524.28,187.74L521.63,193.79L522.39,195.44L522.33,196.76L520.54,196.92L519.91,197.7L520.57,199.78L520.5,201.97L522.41,204.09L522.35,206.36L521.61,208.12L517.72,211.99L514.46,213.6L511.95,216.18L509.33,217.45L507.38,220.91L506.33,221.58L503.54,221.78L503.65,224.18L501.79,225.98L500.85,225.31L498.69,225.3L497.1,226.64L494.37,226.98L492.04,229.54L485.86,230.39L485.04,230.11L484.98,229.17L483.27,228.19L481.94,227.8L478.42,228.78L477.69,227.67L476.19,227.21L474.24,227.23L471,228.88L470.94,229.81L473.18,234.25L473.01,237.97L469.09,244.79L466.12,247.21L464.77,247.63L461.95,246.93L459.75,247.68L457.91,249.44L456.77,249.82L455.69,251.48L453.58,251.3L451.78,251.82L447.6,249.97L445.83,247.48L444.64,244.23L443.2,242.89L440.87,242.91L437.93,242.7L438.24,239.72L439.39,237.27L439.52,230.91L440.31,229L438.58,225.94L437.41,220.81L438.14,218.81L439.84,217.41L441.51,212.59L443.25,209.64L445.25,201.37L447.38,199.42L453.78,197.98L455.48,196.45L457.87,195.89L460.73,193.32L463.07,192.41L468.11,186.94L472.76,185.95L476.28,187.98L477.79,187.88L480.23,187.02L483.99,186.97L485.2,185.66L486.37,179.5L482.81,176.06L482.19,171.65L482.36,169.17L486.67,164.19L486.22,158.78L484.64,155.98L486.06,151.64L485.68,150.37L484.45,149.53L484.1,147.61L488.22,142.56L489.1,140.73L489.06,138.94L491.98,135.53L496.1,135.23L502.02,128.99L502.41,127.46L501.55,126.21L502.01,124.77L505.7,126.91Z" style="fill:rgb(204,204,204);fill-rule:nonzero;stroke:white;stroke-width:0.5px;"/>
            <path id="BR.-PR" d="M396.75,499.4L391.51,499.37L389.44,500.05L388.57,499.59L387,500.16L382.3,503.72L379.63,502.94L375.47,499.95L369.54,500.84L366.2,500.19L364.67,500.84L363.35,503.18L361.48,504.16L357.91,503.75L355.91,504.9L354.5,507.26L355.35,510.25L352.64,512L351.31,510.11L343.3,509.81L340.53,507.59L336.27,507.23L330.98,505.55L325.95,506.09L323.61,504.17L322.55,503.93L317.68,504.27L317.46,503.06L314.93,498.88L314.95,496.29L313.96,493.41L310.54,491.04L309.45,492.17L307.33,492.06L305.16,493.39L303.7,492.31L302.88,492.37L302.6,490.17L305.55,485.15L305.14,482.82L307.3,476.16L307.05,473.86L308.33,471.48L306.97,467.98L308.42,466.38L310.8,464.82L312.73,456.08L316.5,453.72L318.86,446.68L325.38,443.59L328.64,441.3L332.47,441.95L339.75,442.13L342.04,440.54L349.85,443.16L354.81,442.74L357.34,444.58L360.85,445.38L362.19,447.21L364.34,446.94L366.65,447.63L371.96,447.76L374.93,446.91L376.06,448.46L379.65,451.29L380.54,453.05L380.55,455.79L380,457.18L380.38,459.02L381.68,460.53L381.24,462.85L382.73,465.85L385.11,467.96L385.98,470.82L386.83,471.55L385.31,474.73L385.63,476.77L387.24,477.36L393.04,476.71L396.71,477.04L398.32,478.3L397.29,479.36L396.6,482.66L396.95,483.44L398.02,483.97L399.77,480.36L402.67,480.77L402.27,482.72L403,486.02L404.42,486.6L404.58,487.92L403.23,488.94L402.62,490.42L402.07,490.3L402.34,488.36L401.48,488.18L399.7,487.6L398.88,488.9L399.4,489.7L398.37,490.76L394.65,489.81L394.81,491.08L396.42,491.64L397.82,491.39L400.22,492.47L399.25,493.15L397.71,495.93L394.05,497.27L393.85,497.72L396.8,497.52L396.75,499.4Z" style="fill:rgb(204,204,204);fill-rule:nonzero;stroke:white;stroke-width:0.5px;"/>
            <path id="BR.-RJ" d="M468.35,450.28L468.66,449.23L471.85,449.45L474.44,448.86L470.51,446.8L467.7,447.48L466.34,449.08L464.61,449.35L463.26,447.2L462.78,447.2L460.91,448.68L457.76,449.48L457.23,452.29L459.42,452.42L460.49,453.43L459.34,454.51L456.98,454.5L454.87,452.51L455.91,448.6L457,447.45L459.35,446.44L462.62,446.22L464.12,445.51L465.77,443.36L465.02,441.72L460.18,442.23L458.41,441.84L456.61,439.08L455.34,438.54L461.36,435.97L464.44,436.07L471.3,432.75L475.37,432.92L478.81,431.76L481.34,432.03L481.81,432.66L483.19,432.46L495.22,426.94L495.15,425.81L493.71,425.68L493.8,424.93L498.05,415.17L497.32,414.46L499.12,413.7L501.65,411.34L503.58,412.1L504.25,416.81L511.08,418.95L514.07,418.58L515.69,419.64L514.46,424.64L515.6,431.42L512.02,433.85L506.05,435.79L503.22,437.51L499.72,441.2L499.72,445.66L498.99,447.14L497.17,447.65L490.62,447.48L484.83,448.18L482.44,447.72L481.89,446.66L483.59,443.73L483.5,443.11L482.72,442.93L479.93,444.08L479.67,444.77L481.35,446.74L481.6,447.71L481.01,448.23L468.35,450.28ZM463.24,452.27L462.57,451.3L464.68,449.75L466.98,451.39L464.52,451.89L463.64,451.54L463.24,452.27Z" style="fill:rgb(204,204,204);fill-rule:nonzero;stroke:white;stroke-width:0.5px;"/>
            <path id="BR.-RN" d="M609.29,182.91L603.82,183.34L599.19,181.94L593.36,182.33L589.41,181.58L588.47,179.7L587.09,179.75L585.27,181.1L584.96,182.58L586.21,184.89L585.2,184.57L584.72,185.16L585.35,187.52L584.8,188.73L584.3,189.47L581.95,190.4L581.12,189.66L581.64,188.12L580.75,186.95L577.03,186.73L573.88,187.99L572.96,186.15L569.43,185.63L569.51,183.91L570.98,182.97L571.8,180.27L574.79,177.06L574.78,175.87L574.25,175.43L565.74,177.72L565.23,179.71L560.02,183.21L556.24,182.18L554.31,180.54L553.74,181L552.44,181.21L552.78,179.24L555.03,176.11L557.35,176.29L559.38,173.68L560.78,171.24L561.28,168.83L562.99,167.14L566.29,160.45L568.9,158.44L573.79,156.85L575.12,158.36L579.47,158.76L581.16,160.51L582.48,161.01L585.81,160.69L588.69,161.21L593.56,160.24L599.33,161.2L601.28,162.06L602.94,163.82L605.25,168.56L607.4,178.16L608.12,178.7L609.29,182.91Z" style="fill:rgb(204,204,204);fill-rule:nonzero;stroke:white;stroke-width:0.5px;"/>
            <path id="BR.-RO" d="M187.32,290.95L186.03,289.5L185.59,287.62L184.03,287.1L181.36,287.5L177.29,285.69L176.62,284.68L175.35,285.27L171.85,282.62L170.71,279.77L169.67,279.38L167.9,280.5L166.68,280.47L165.27,279.67L164.4,278.34L161.27,276.76L159.31,276.59L157.27,277.98L150.33,276.72L148.39,275.1L148.09,273.13L144.62,271.67L143.51,269.75L140.41,269.12L139.57,265.41L138.69,264.52L138.21,265.68L137.55,265.36L137.28,264.72L137.9,263.19L137.06,261.67L135.7,261.28L134.44,257.81L134.27,256.15L135.82,253.24L135.61,251.58L133.7,247.45L133.64,245.16L135.68,242.24L136.04,240.77L135.29,236.86L135.83,235.21L134.66,233.03L133.64,232.65L131.65,235.1L128.9,234.08L123.72,234.16L114.94,236.41L111.97,235.15L115.23,232.59L117.15,232.01L118.7,230.2L118.69,228.35L125.52,228.28L128.92,230.96L130.14,230.17L130.68,228.92L133.9,228.16L137.04,225.93L138.06,228.28L139.42,228.73L141.96,225.57L141.7,223.82L142.23,222.98L143.98,221.72L147.07,222.39L148.27,221.32L150.4,220.94L154.27,221.4L154.14,218.13L156.2,216.92L157.37,214.75L156.3,213.6L156.35,212.93L157.54,211.34L160.28,210.59L160.19,209.42L161.91,208.92L163.29,206.36L174.08,206.3L176.23,207.43L177.48,209.83L178.81,211.1L181.35,212.08L182.6,215.35L184.66,215.63L185.34,218.51L188.58,219.99L189.26,219.8L189.8,218.06L191.72,216.98L193.11,217.26L193.43,218.34L194.83,219.31L195.43,220.55L193.38,226.96L194.48,228.39L195.46,232.05L194.52,233.72L194.9,235.65L193.87,239.97L194.14,241.73L195.64,244.48L194.74,253.48L211.9,253.53L211.66,254.09L212.88,255.2L216.38,255.11L218.56,255.65L219.97,259.24L218.4,261.74L217.04,262.82L216.9,264.14L217.33,267.39L218.81,267.87L220.34,271.21L220.88,274.75L220.25,278.7L218.59,280.71L217.49,283.8L215.42,284.74L214.49,285.82L212.54,292.05L206.96,296.05L203.63,294.46L202.36,293.03L195.28,293.99L193.71,293.26L190.33,293.92L189.33,292.41L187.32,290.95Z" style="fill:rgb(204,204,204);fill-rule:nonzero;stroke:white;stroke-width:0.5px;"/>
            <path id="BR.-RR" d="M234.61,61.4L236.21,78.37L217.72,78.3L217.75,78.98L213.76,85.27L212.54,89.04L212.66,90.43L213.8,91.84L213.36,92.76L211.33,93.31L208.67,95.18L206.85,94.95L205.93,92.44L204.06,90.4L201.23,89.47L199.63,89.53L199.08,90.42L195.71,91.82L194.69,93.08L193.87,96.05L193.99,99.58L193.24,101.87L193.68,103.98L191.32,102.94L189.45,103.29L186.93,99.6L184.45,98.25L179.44,93.83L179.58,92.69L181.42,93.02L182.62,91.12L181.49,86.79L179.69,85.05L178.81,82.88L178.52,77.9L179.86,73.9L178.84,70.73L180.46,69.27L179.54,67.7L179.35,65.44L177.69,60.68L174.96,56.94L176.58,52.12L174.14,50.51L170.93,50.24L169.72,49.07L169.66,48.11L167.29,48.41L165.82,47.29L166.05,44.33L158.93,44.24L155.62,43.54L156.34,39.7L152.94,32.33L152.47,28.61L153.26,27.13L153.18,26.17L146.37,20.33L145.02,17.56L143.63,16.52L143.95,15.35L145.97,16.08L146.91,17.81L150.91,17.4L154.17,18.09L155.87,21.57L158.52,20.44L161.7,20.6L164.08,22.01L164.6,21.87L165.21,20.31L166.52,20.45L167.97,21.38L171.9,25.95L173.66,26.63L175.17,25.95L175.91,24.82L175.18,21.22L175.54,19.48L177.93,19.15L180.49,16.96L185.14,18.35L187.56,17.16L189.72,17.3L191.06,16.02L194.32,15.93L195,15.08L195.05,13.73L198.08,11.92L203.17,11.72L204.74,8.76L207.34,7.73L209.55,4.98L208.35,1.42L207.18,1.06L213.62,1.17L215.42,0L216.79,0.42L218.84,3.9L218.17,8.8L217.45,10.18L216.2,10.88L216.26,11.71L219.49,11.9L223.66,13.81L222.78,15.24L222.77,16.39L225.11,19.81L225.31,21.36L223.8,24.28L221.92,25.69L221.2,27.19L221.53,29.75L220.06,32.16L218.85,37.5L218.76,40.17L219.74,42.04L220.24,45.2L222.71,46.43L222.5,53L224.31,53.29L223.65,54.46L226.26,55.7L230.38,60.36L234.61,61.4Z" style="fill:rgb(204,204,204);fill-rule:nonzero;stroke:white;stroke-width:0.5px;"/>
            <path id="BR.-RS" d="M321.99,638.52L319.49,636.96L320.01,632.69L319.7,627.37L326.3,619.63L324.84,617.98L321.52,616.76L319.2,614.51L317.99,612.89L317.46,610.12L314.17,605.85L311.11,604.05L309.66,604.26L307.76,602.75L304.99,600.34L304.85,598.64L302.95,596.48L299.63,596.02L296.98,593.89L295.22,594.02L293.05,592.64L290.03,587.44L287.5,585.32L286.8,585.4L286.13,587.19L283.54,589.43L280.87,589.55L281.37,585.41L280.98,584.41L277.33,580.12L268.34,571.97L264.29,572.04L262.06,575.33L257.21,575.01L255.91,573.4L257.8,572.46L260.32,569.69L261.03,566.6L263.78,565.82L264.7,564.82L270.15,558.34L271.77,554.74L274.34,553.48L276.4,548.65L279.98,545.62L282.68,541.08L285.18,540.97L285.73,541.76L286.2,540.48L284.64,539.08L284.94,538.39L286.84,537.05L289.63,536.1L291.6,533.2L293.81,532.05L296.28,531.65L298.05,529.84L299.52,526.42L300.19,526.94L301.52,526.77L306.64,525.05L307.85,524.48L309.95,522.13L311.12,521.75L312.13,520.4L314.44,519.67L314.74,520.05L318.26,520.44L321.52,519.29L322.08,518.48L323.43,519.06L323.28,519.98L326.36,519.95L327.99,520.94L330.55,520.57L332.47,521.72L339.39,521.33L344.13,523.65L345.13,526.09L346.72,526.28L346.81,525.8L348.62,525.45L354.18,528.99L355.55,530.54L357.82,531.49L365.14,541.33L373,542.94L375.11,542.54L378.46,542.88L379.34,545.22L375.99,547.21L375.26,549.07L375.1,552.82L374.58,554.12L373.4,554.32L372.11,556.01L372.08,557.42L373.88,558.59L373.88,556.46L375.37,555.64L379.3,558.01L374,566.78L369.79,578.38L363.49,588.86L358.05,595.52L351.54,601.48L345.45,605.16L342.35,609.47L343.16,605.28L342.08,603.15L343.01,602.98L345.6,604L349,601.91L352.6,597.51L354.07,597.51L355.12,596.67L356.42,593.92L356.57,589.52L358.14,589.45L359.15,590.58L359.5,590.32L359.21,588.92L359.72,586.85L362.94,584.69L363.67,583.61L363.93,578.58L364.49,577.9L364.99,578.7L365.79,578.31L366.26,575.23L365.21,573.57L364.54,573.54L363.96,575.39L360.44,575.77L360.1,577.38L359.57,577.43L358.76,576.99L358.86,575.28L358.04,574.39L357,574.72L356.4,574.24L354.75,570.27L354.14,572.98L354.58,575.23L355.83,577.34L354.52,580.69L354.72,584.49L353.55,581.5L351.58,586.8L351.75,589.21L349.42,590.55L348.81,592.13L344,594.23L343.37,598.09L342.4,600.36L340.04,601.66L339.93,603.42L340.66,605.27L339.71,605.83L339.46,607.34L339.89,607.94L341.87,608.43L342.02,609.34L339.89,610.99L337.57,615.51L335.64,622.39L333.63,626.88L331.95,629.4L321.99,638.52Z" style="fill:rgb(204,204,204);fill-rule:nonzero;stroke:white;stroke-width:0.5px;"/>
            <path id="BR.-SC" d="M379.3,558.01L375.37,555.64L373.89,556.46L373.88,558.59L372.08,557.42L372.12,556.01L373.4,554.32L374.58,554.12L375.11,552.81L375.26,549.06L375.99,547.2L379.33,545.2L378.45,542.86L375.1,542.52L372.99,542.92L365.13,541.32L357.81,531.48L355.53,530.53L354.16,528.98L348.6,525.44L346.79,525.78L346.7,526.26L345.1,526.07L344.1,523.63L339.36,521.31L332.44,521.7L330.53,520.55L327.96,520.91L326.33,519.93L323.25,519.96L323.4,519.03L322.05,518.45L321.49,519.26L318.23,520.42L314.71,520.03L316.9,515.01L316.32,511.76L316.7,506L317.66,504.25L322.53,503.91L323.59,504.15L325.93,506.07L330.96,505.53L336.25,507.21L340.51,507.57L343.27,509.79L351.28,510.08L352.61,511.98L355.32,510.22L354.47,507.23L355.88,504.87L357.88,503.73L361.45,504.13L363.32,503.16L364.64,500.81L366.17,500.16L369.51,500.81L375.43,499.91L379.59,502.91L382.26,503.68L386.96,500.12L388.52,499.55L389.39,500.01L391.46,499.33L396.7,499.36L396.31,500.68L396.75,502.72L395.25,503.86L394.27,503.38L394.02,504.69L396.3,507.29L395.29,509.58L395.13,511.9L395.99,513.06L396.25,518.92L397,519.67L397.77,519.16L398.22,520.75L397.32,520.53L396.13,521.16L395.79,525L396.36,527.59L395.79,528.34L397.01,532.14L395.63,538.49L393.92,543.17L393.22,542.31L393.43,541.34L392.51,540.16L392.25,540.49L392.43,542.92L393.59,543.75L392.67,545.41L391.03,546.06L384.1,551.66L379.3,558.01ZM397.18,531.46L398.03,526.83L397.78,524.63L399.41,523.93L400.07,524.87L399.53,527.43L398.12,529.51L398.32,530.68L397.18,531.46ZM396.73,507.09L394.86,505.07L397.66,502.68L398.31,503.73L396.73,507.09Z" style="fill:rgb(204,204,204);fill-rule:nonzero;stroke:white;stroke-width:0.5px;"/>
            <path id="BR.-SE" d="M569.94,261.69L567.04,262.58L562.55,259.96L561.83,259.03L562.15,256.83L558.15,251.56L559.04,248.91L560.74,248.92L561.87,249.67L564.42,248.68L565.41,247.55L564.65,244.8L565.39,242.3L565.47,239.19L562.73,236.09L561.46,233.59L561.24,231.45L561.91,230.3L568.37,233.28L572.05,234.23L577.47,237.3L578.77,239.75L586.24,244.25L586.84,245.56L584.46,246.32L579.89,249.26L577.37,252.36L576.11,249.42L575.12,249.58L575.46,250.74L576.46,251.19L576.41,252.95L575.14,255.04L574.24,254.02L573.25,253.86L574.58,255.16L574.32,256.93L572.53,260.11L571.75,260.26L571.93,258.4L573.02,256.8L572.21,256.43L571.12,259.83L571.4,260.55L569.94,261.69Z" style="fill:rgb(204,204,204);fill-rule:nonzero;stroke:white;stroke-width:0.5px;"/>
            <path id="BR.-SP" d="M404.58,487.92L404.42,486.59L403,486.02L402.27,482.72L402.67,480.77L399.77,480.36L398.01,483.98L396.95,483.45L396.6,482.67L397.29,479.37L398.32,478.31L396.71,477.04L393.03,476.72L387.23,477.37L385.62,476.78L385.29,474.74L386.81,471.56L385.96,470.83L385.1,467.98L382.72,465.87L381.23,462.86L381.67,460.55L380.37,459.03L379.99,457.19L380.55,455.8L380.53,453.06L379.64,451.3L376.05,448.47L374.92,446.92L371.95,447.78L366.64,447.65L364.33,446.96L362.19,447.23L360.85,445.4L357.34,444.6L354.8,442.76L349.84,443.18L342.03,440.56L339.74,442.15L332.45,441.97L328.62,441.32L325.37,443.61L328.2,439.85L335.76,435.31L337.71,433.44L341.1,428.11L342.54,427.08L342.47,425.02L345.68,420.41L345.45,417.54L349.24,412.99L350.02,408.38L351.76,407.44L354.97,403.73L358.26,402.68L358.94,399.83L362.31,397.59L364.23,397.22L365.66,395.53L367.16,394.92L369.64,396.6L376.48,397.65L381.76,396.93L385.61,399.13L385.8,401.47L387.01,403.56L388.18,403.26L389.26,401.19L390.07,401.05L390.68,402.4L390.69,405.18L391.89,405.71L392.3,405.26L392.03,402.72L392.97,401.05L401.15,400.38L402.16,399.13L404.78,401.01L407.56,400.32L408.11,398.27L410.49,398.16L412.15,398.94L414.3,398.01L417.56,401.36L417.76,402.4L416.9,405.78L419.36,407.6L419.76,409.15L418.18,411.74L418,413.68L419.1,415.04L419.47,417.25L420.77,419.05L421.57,421.88L425.24,421.11L429.17,422.8L428.42,426.25L426.56,428.97L426.63,435.36L426.1,436.92L426.82,438.52L430.41,440.58L430.92,442.3L429.71,443L431.73,446.31L434.87,446.32L435.05,446.85L438.67,445.85L439.23,446.27L440.54,445.95L441.29,444.97L441.27,441.6L442.46,441.27L442.21,442.59L446.94,442.42L451.88,439.49L454.09,439.27L455.33,438.54L456.6,439.08L458.4,441.84L460.17,442.23L465.01,441.72L465.76,443.36L464.11,445.51L462.61,446.22L459.34,446.44L456.99,447.45L455.9,448.6L454.86,452.51L456.97,454.5L455.21,455.12L454.15,454.3L451.75,456.92L446.27,459.17L446.2,462.55L444.8,462.81L442.77,461.88L438.79,461.53L435.73,462.69L434.02,465.34L432.71,465.91L432.21,465.79L432.79,465.32L432.31,464.1L431.14,463.25L430.31,464.48L430.27,465.84L422.65,470.08L421.7,470.9L421.39,472.06L418.12,475.06L414.87,477.01L412.95,477.54L405.45,482.78L405.01,483.4L406.56,483.89L407.49,483.53L407.49,484.29L404.58,487.92ZM448.89,464.91L445.7,464.07L447.83,460.79L449.22,461.69L449.35,464.6L448.89,464.91Z" style="fill:rgb(204,204,204);fill-rule:nonzero;stroke:white;stroke-width:0.5px;"/>
            <path id="BR.-TO" d="M433.35,281.82L427.99,283.24L423.69,285.68L417.61,286.68L413.31,289.66L411.34,286.8L410.79,286.77L410.28,290.07L409.59,290.15L406.24,289.47L403.11,288L403.45,285.7L398.92,286.23L396.16,285.89L394.55,288.18L393.41,288.13L391.69,281.32L389.5,278.13L386.85,281.49L385.22,287.43L384.59,287.66L377.43,284.52L373.5,284.12L368.9,282.69L369.42,280.35L370.64,278.47L370.67,276.76L368.3,279.15L367.1,282.71L365.34,282.18L364.36,278.84L365.1,276.08L364.66,273.03L364.14,272.45L364.6,267.57L363.5,265.32L364.53,263.06L363.14,261.72L363.08,260.86L364.96,254.87L365.54,248.95L368.28,242.54L368.72,239.4L369.82,238.15L371.03,235.24L372.65,231.55L373.78,227.1L378.36,220.82L381.51,218.89L384.33,213.12L385.42,212.32L387.18,207.17L387.84,203.13L385.28,200.77L384.52,198.94L387.36,194.58L386.87,189.73L389.53,187.6L395.44,185.25L395.53,183.24L396.39,181.97L397.9,180.63L399.19,180.48L399.34,177.48L401.44,176.54L402.37,173.79L401.35,172.45L401.26,171.05L403.24,170.32L403.64,169.02L401.12,167.4L400.1,165.74L396.94,165.87L394.65,165.06L397.8,162.57L400.63,162.09L403.41,163.61L407.5,163.46L408.45,165.5L413.07,166.96L413.91,167.99L415.02,172.99L414.81,176.71L415.7,179.36L413.93,185.51L413.65,190.47L411.9,192.51L410.14,193.18L409.96,193.89L411.9,195.21L413.69,195.18L414.05,196.41L413.43,197.6L414.28,199.04L415.16,198.97L421.35,207L423.49,205.66L427.76,204.72L429.56,205.94L429,210.94L429.39,212.29L426,212.64L424.09,213.73L422.68,217.84L423.05,219.14L420.16,222.39L423.38,223.79L424.8,228.08L428.68,230.03L428.77,230.56L427.13,232.37L427.26,234.02L429.4,235.64L430.39,238.51L431.73,240.51L435.22,240.78L437.93,242.7L440.87,242.91L439.4,245.01L435.58,247.03L432.37,249.65L433.47,251.82L431.2,253.09L429.68,256.58L428.17,258.46L428.4,259.38L430.26,261.33L433.85,262L435.72,262.99L435.77,263.75L433.17,265.01L432.74,265.97L433.18,266.8L435.13,266.91L436,268.06L431.94,270.86L432.05,275.88L434.45,277.03L434.67,278.51L433.31,280.89L433.35,281.82Z" style="fill:rgb(204,204,204);fill-rule:nonzero;stroke:white;stroke-width:0.5px;"/>
        </g>
    </g>
</svg>
