<?xml version="1.0" encoding="UTF-8" standalone="no"?>
<!DOCTYPE svg PUBLIC "-//W3C//DTD SVG 1.1//EN" "http://www.w3.org/Graphics/SVG/1.1/DTD/svg11.dtd">
<svg width="100%" height="100%" viewBox="0 0 821 357" version="1.1" xmlns="http://www.w3.org/2000/svg" xmlns:xlink="http://www.w3.org/1999/xlink" xml:space="preserve" style="fill-rule:evenodd;clip-rule:evenodd;">
    <g transform="matrix(1,0,0,1,-89,-275)">
        <g transform="matrix(1,0,0,1,101.104,344.79)">
            <path id="BN" d="M626.19,99.58L626.92,101L627.45,101.15L627.37,101.6L629.73,103.59L629.48,104.97L630.45,106.23L630.33,107.67L630.9,108.49L630.58,109.49L631.66,110.38L631.84,111.53L631.66,112.78L631.03,113.68L631.05,115.06L631.56,116.94L631.36,117.63L631.76,118.63L633.89,120.47L634.89,121.97L634.85,122.69L634.27,123.25L633.42,123.67L632.95,123.55L632.37,122.61L631.56,122.12L630.31,122.28L630.1,121.21L629.79,120.98L628.22,121.1L626.12,120.34L624.8,120.5L624.33,120.17L624.04,117.72L624.2,116.42L622.88,112.16L622.36,111.31L621.61,107.93L621.77,106.82L621.38,105.55L621.92,104.15L621.47,103.73L621.47,103.24L621.99,103.37L622.41,104.23L622.36,102.78L624.57,101.91L624.73,101.46L624.15,100.96L623.95,100.17L624.71,99.67L626.19,99.58ZM622.18,94.35L623.48,94.43L622.54,95.11L622.32,95.92L621.24,95.86L621.34,96.74L621.71,97.14L620.5,98.62L620.76,99.83L619.99,100.22L618.75,102.56L614.75,103.48L614.23,103.82L613.62,105.36L613.18,105.73L612.03,105.84L611.44,106.2L611.3,107.71L612.18,109.17L612.34,110.18L612.91,117.96L613.63,118.74L615.21,119.2L615.15,121.17L614.1,123.27L612.74,124.81L612.75,125.69L614.17,124.81L613.74,126.07L611.72,128.75L611.66,129.42L612.54,129.31L612.46,129.58L610.91,130.86L608.62,133.71L606.77,134.8L605.13,135.31L604.47,135.15L605.21,134.12L605.08,133.71L603.76,133.49L602.79,132.88L601.61,130.67L600.98,130.02L599.55,129.86L597.92,126.82L597.43,124.74L596.78,124.74L596.01,125.5L594.61,125.06L593.48,125.59L592.18,125.12L592.13,123.81L592.63,122.05L591.78,121.27L591.81,119.44L590.02,116.34L588.93,114.93L587.74,114.3L587.26,114.46L586.31,113.23L584.52,112.61L589.66,112.13L597.18,109.53L599.93,108.01L607.11,101.94L611.18,99.3L613.75,97.17L614.29,97.24L621.03,94.47L622.1,94.15L622.18,94.35Z" style="fill:rgb(204,204,204);fill-rule:nonzero;stroke:white;stroke-width:0.5px;"/>
            <path id="MY.-01" d="M152.54,244.29L152.47,242.96L153.16,243.41L153.14,244L152.54,244.29ZM115.05,211.93L116,211.71L116.64,211.34L116.6,210.08L116.11,209.62L114.61,209.09L114.54,208.28L115.29,207.61L115.29,205.93L116.14,202.32L117.02,201.56L117.12,200.94L118.9,200.25L119.02,199.71L119.08,198.64L120.04,197.49L119.81,196.59L120.14,195.85L119.95,193.97L120.36,192.95L121.15,192.31L120.63,191.08L123.45,183.21L127.19,184.31L134.22,192.54L141.38,195.65L146.83,193.54L149.98,192.94L152.42,194.29L153.82,194.52L154.82,195.74L159.2,197.95L159.79,198.07L160.14,197.8L160.67,198.03L161.15,197.28L160.51,195.92L160.53,195.33L159.61,195.43L159.34,195.21L159.48,194.26L160.37,194.02L160.26,193.58L159.87,193.84L159.66,193.42L160.51,193.02L160.22,192.76L160.55,192.24L160.47,191.41L160.2,190.62L160,191.28L159.57,191.25L159.3,190.28L159.94,189.89L160.9,190.1L160.98,189.74L162.49,190L165.25,191.12L166.07,190.38L166.41,190.83L166.24,191.75L168.07,193.12L168.78,193.1L168.44,193.49L168.72,194.82L169.66,196.16L168.66,196.53L168.53,196.82L169.43,199L170,199.23L172.32,202.42L173.3,202.67L174.32,204.07L173.91,204.41L173.98,204.66L175.15,206.52L174.71,206.38L174.23,206.67L174.28,208.15L176.62,211.29L177.74,213.78L180.51,217.74L181.14,219.41L181.03,219.69L180.39,219.03L180.14,220.14L180.32,221.47L181.25,222.63L181.98,222.64L181.98,222.26L182.42,222.63L182.29,223.4L183.49,225.1L184.01,226.95L184.82,228.01L184.6,228.68L185.92,230.36L185.8,231.18L186.58,232.1L186.14,232.5L186.16,233.96L187.34,235.62L187.42,236.13L186.97,236.38L186.93,236.87L187.79,238.62L187.05,239.42L187.36,241.71L187.06,241.96L186.31,242.19L185.78,241.77L184.15,242.97L183.1,242.61L181.44,242.87L181.14,242.34L179.5,241.83L180.95,240.02L180.23,240.33L179.73,239.63L177.58,238.07L178.4,236.98L178.13,236.41L178.73,235.91L179.81,235.91L181.24,234.92L181.39,234.41L179.61,235.69L178.74,235.44L178.04,235.86L177.57,236.72L177.1,235.19L177.14,234.12L175.16,231.97L174.8,230.74L173.65,230.25L173.15,230.38L174.56,231.64L174.72,232.95L175.87,233.81L176.54,235.33L176.09,236.08L176.17,238.61L175.43,239.26L174.31,239.5L171.85,239.13L171.24,238.82L170.66,237.87L168.52,237.13L167.65,237.17L166.25,238.42L165.28,238.17L164.61,237.32L164.31,237.39L164.48,237.95L163.08,238.92L161.84,240.31L161.32,241.64L160.05,242.73L159.13,242.78L157.7,242.39L157.33,241.16L157.42,240.34L157.04,240.43L157.17,242.29L157.65,243.19L156.37,244.37L156.3,245.93L156.11,245.99L153.65,243.75L150.66,235.94L149.59,234.59L148.53,233.83L142.54,231.32L138.02,228.06L136.67,227.4L134.91,226.84L133.21,226.92L131,224.82L131.39,224.1L128.63,222.4L126.38,221.84L124.79,221.86L123.81,222.4L123.06,221.84L120.03,217.98L117.29,215.36L117.01,214.15L116.55,213.59L114.22,212.17L114.92,212L115.05,211.93ZM182.75,180.48L183.13,180.65L183.69,182.8L184.53,184.31L184.1,184.62L184.17,185.08L184.9,185.61L184.45,187.61L182.27,187.72L180.74,186.45L180.61,185.05L182.48,183.22L181.84,181.72L182.16,180.64L182.75,180.48Z" style="fill:rgb(204,204,204);fill-rule:nonzero;stroke:white;stroke-width:0.5px;"/>
            <path id="MY.-02" d="M7.63,47.01L7.65,47.64L6.99,49.19L6.49,48.11L6.12,48.56L5.9,48.45L6.01,48.06L5.35,47.55L5.13,46.92L5.95,46.13L6.35,44.78L7.13,44.48L7.81,43.8L8.03,43.82L8.07,44.59L7.44,44.9L7.47,45.58L8.26,44.85L8.88,45.5L8.71,46.03L9.04,46.28L8.61,47.15L8.48,46.62L7.72,46.73L7.63,47.01ZM7.88,36.64L8.59,37.1L8.68,38.08L10.21,39L10.47,39.96L10.9,39.88L10.49,40.96L11.04,41.65L10.91,42.47L9.69,42.86L9.61,43.28L8.88,43.76L8.39,43.42L8.57,43.24L8.32,42.77L7.04,42.75L5.32,44.46L4.74,44.28L4.4,44.86L3.58,45.27L3.56,44.3L2.94,43.21L3.3,42.58L3.2,41.71L2.88,41.14L2.13,41.37L1.54,40.91L0.48,41.1L0.04,39.83L0.02,38.15L0.36,38.06L1.06,38.52L1.51,38.1L3.7,38.3L3.56,38.82L3.87,39.01L4.2,38.5L5.5,38.71L6.12,38.58L6.96,37.37L7.63,37.3L8.26,37.77L8.03,37.15L7.18,36.99L7.44,36.47L7.88,36.64ZM30.03,34.3L31.79,34.76L32.97,34.29L33.43,34.72L34.27,34.54L34.84,35.52L35.78,36.08L36.64,36.17L37.16,35.74L37.66,36.25L41.23,37.53L42.08,37.43L43.09,36.73L44.18,35.16L44.5,35.37L44.86,37.2L47.2,37.8L47.72,38.38L47.66,41.34L47.99,41.73L48.45,41.32L48.69,41.44L48.77,43.12L48.2,44.06L48.95,45.88L49.51,45.88L49.99,45.15L51.03,45.82L52.45,45.63L53.97,44.03L55.65,45.48L58.63,45.18L59.31,45.54L59.12,46.11L59.98,47.83L59.22,48.47L57.93,48.84L57.24,49.95L58.64,50.48L60.2,51.58L59.01,53.49L59.4,54.14L59.16,55.74L59.99,56.58L58.83,57.93L58.32,59.3L57.91,59.02L55.89,59.23L56.03,59.69L55.24,60.81L55.35,62.48L54.35,63.36L54.45,64.13L54.28,64.87L53.12,64.7L52.87,64.94L52.93,65.99L53.91,66.85L54.14,67.41L53.64,69.76L52.83,69.82L52.59,70.7L51.94,71.35L51.97,71.89L52.42,72.42L52.66,73.98L51.73,75.95L51.13,76.23L50.44,76.06L49.9,76.69L49.59,78.69L49.1,79.51L49.21,80.17L48.79,82.02L47.36,83.23L44.58,83.52L44.23,84.3L44.25,85.28L42.97,86L42.37,86.05L41.54,87.64L41.77,87.99L41.49,88.66L40,89.2L39.35,90.73L38.26,90.95L37.18,92.47L36.49,92.09L35.95,92.28L35.22,91.99L35.35,91.14L35.04,90.87L34.63,91L34.46,90.58L34.81,90.06L36.52,90.44L36.7,90.25L35.72,81.14L35.83,73.49L34.92,73.1L33.89,73.49L32.59,73.12L31.45,73.18L30.27,72.5L28.52,72.7L28.18,72.41L28.14,69.34L28.76,68.23L28.6,67.42L29.1,66.29L29.32,64.8L28.47,56.55L27.66,53.87L25.96,51.79L25.48,49.54L24.78,48.02L23.57,46.43L22.39,45.45L22.94,43.97L25.86,40.8L26.76,39.33L28.53,38.06L29.24,37.18L29.5,34.06L30.03,34.3Z" style="fill:rgb(204,204,204);fill-rule:nonzero;stroke:white;stroke-width:0.5px;"/>
            <path id="MY.-03" d="M99,45.99L101.02,47.36L102.21,47.66L102.33,47.08L104.12,46.75L104.49,47.53L104.82,47.01L109.24,49.11L110.4,50.78L113.42,57.66L114.71,59.83L114.45,60.08L114.53,60.61L115.53,61.42L115.9,61.23L116.89,62L114.32,64.94L110.71,68.26L111.69,73.71L111.04,75.37L111.39,78.51L110.7,79.17L113.07,81.22L112.11,83.84L112,86.2L112.23,87.36L111.95,88.77L114.78,89.92L115.96,90.91L116.45,91.92L115.47,93L116.24,94.88L115.7,96.08L116.17,97.72L116.02,99.87L116.48,100.14L117.75,100L119.03,100.94L119.64,101L121.38,102.07L121.41,103.19L122.13,104.92L121.71,105.63L120.12,104.98L119.74,105.11L119.36,105.94L119.78,108.18L118.6,108.27L117.43,107.85L116.09,109.4L115.52,109.35L113.67,107.64L111.54,107.45L110.19,107.73L110.23,108.9L108.81,110.56L108.27,110.67L106.83,109.88L105.12,109.88L104.68,110.95L104.37,110.99L102.36,109.58L101.78,108.16L100.56,107.31L100.42,106.27L99.91,105.7L99.12,105.83L97.24,106.86L96.64,106.42L96.06,106.71L95.8,106.56L95.32,105.61L94.85,106.34L93.87,105.58L93.29,106.23L93.45,107.66L93.07,109.28L92.36,109.99L91.87,111.51L91.62,111.58L91.05,111L90.92,109.28L89.29,108.59L88.89,107.33L87.98,106.87L88,105.86L86.61,105.64L86.12,106.46L86.35,107.68L86.08,108.73L86.22,109.61L85.78,111.01L85.25,111.54L84.33,111.23L83.94,111.91L82.24,112.57L81.83,113.49L81.37,113.81L80.31,114.14L79.37,113.7L78.88,114.03L75.88,111.72L74.91,111.84L73.62,113.11L71.35,111.52L70.4,111.71L68.66,109.14L68.46,108.21L68.78,107.73L70.31,107.73L70.03,105.94L70.92,105.49L71.54,103.88L71.37,102.37L71.73,101.99L73.03,101.66L72.63,101.29L73.29,100.06L73.1,98.07L72.25,97.31L72.21,96.88L73.1,96.01L73.02,95.45L73.46,94.89L73.75,93.47L74.52,92.71L74.68,89.28L75.59,87.9L75.5,87.1L76.12,86.24L75.99,85.21L76.71,85.19L77.85,84.36L78.03,83.28L78.76,82.6L79.16,81.36L79.75,81.54L80.57,82.45L82.37,82.95L84.47,82.2L85.18,81.15L84.86,79.85L87.16,81.75L91.49,81.99L93.8,79.62L93.66,78L94.48,77.61L94.98,76.88L94.76,76.15L95.11,74.58L93.91,74.38L94.1,72.31L93.14,71.51L93.37,70.89L94,70.69L94.4,69.61L93.65,68.16L94.13,67.15L93.85,66.99L93.22,67.27L92.87,66.61L92.33,66.46L92.18,65.95L91.15,65.32L90.29,63.29L90.48,62.28L91.82,62.04L92.79,61.08L92.46,59.57L92,59.05L92.33,57.78L92.88,57.6L93,56.26L94.07,55.49L94.04,54.95L94.7,54.22L97.36,52.49L97.68,51.57L98.95,49.8L98.37,48.8L98.32,48.01L98.45,46.63L99,45.99Z" style="fill:rgb(204,204,204);fill-rule:nonzero;stroke:white;stroke-width:0.5px;"/>
            <path id="MY.-04" d="M94.05,201.37L95.13,200.9L96.51,199.2L97.26,199.35L97.66,198.52L98.22,198.12L101.2,198.07L102.14,196.66L105.03,197.97L106.53,197.92L109.77,196.88L111.3,197.24L112.84,198.29L117.94,199.8L119.03,199.71L118.91,200.25L117.13,200.94L117.03,201.56L116.15,202.32L115.3,205.93L115.3,207.61L114.55,208.28L114.62,209.09L116.12,209.62L116.61,210.08L116.65,211.34L116.01,211.71L114.89,211.97L114.19,212.14L112.94,211.94L111.52,211.17L110.21,211.1L109.11,210.36L105.14,208.97L103.09,207.71L101.46,207.74L100.07,205.7L98.36,204.59L97.55,202.82L95.85,201.8L94.25,201.61L94.05,201.37Z" style="fill:rgb(204,204,204);fill-rule:nonzero;stroke:white;stroke-width:0.5px;"/>
            <path id="MY.-05" d="M91.94,166.07L92.16,165.51L92.69,165.19L93.99,165.53L94.87,167.06L96.9,167.32L97.94,169.7L100.04,168.45L100.9,168.41L101.95,169.4L110.91,171.75L113.94,175.65L121.61,180.72L122.83,181.06L123.45,183.2L120.63,191.07L121.15,192.3L120.36,192.94L119.95,193.96L120.14,195.84L119.81,196.58L120.04,197.48L119.08,198.63L119.02,199.7L117.93,199.79L112.83,198.28L111.29,197.23L109.76,196.87L106.52,197.91L105.02,197.96L102.13,196.65L101.19,198.06L98.21,198.11L97.65,198.51L97.25,199.34L96.5,199.19L95.12,200.89L94.04,201.36L93.9,200.38L93.27,200.26L92.36,199.43L91.02,199.75L89.8,199.67L89.28,200.27L89.04,199.95L89.43,198.97L88.87,196.89L87.86,195.58L86.71,195.54L86.67,195.16L87.06,194.71L86.89,193.42L85.29,192.29L84.25,192.65L83.56,192.44L83.61,192.15L84.47,191.87L84.41,190.98L85.02,190.4L84.86,189.86L85.41,188.91L85.56,187.65L85.04,181.55L89.95,181.72L90.62,180.91L92.83,175.9L93.94,175.22L93.97,174.56L93.05,172.56L93.61,170.81L93.13,169.83L92.99,168L92.51,167.2L92.41,166.35L91.94,166.07Z" style="fill:rgb(204,204,204);fill-rule:nonzero;stroke:white;stroke-width:0.5px;"/>
            <path id="MY.-06" d="M70.4,111.69L71.35,111.5L73.62,113.09L74.91,111.82L75.88,111.7L78.88,114.01L79.37,113.68L80.31,114.12L81.37,113.79L81.83,113.47L82.24,112.55L83.94,111.89L84.33,111.21L85.25,111.52L85.78,110.99L86.22,109.59L86.08,108.71L86.35,107.66L86.12,106.44L86.61,105.62L88,105.84L87.98,106.85L88.89,107.31L89.29,108.57L90.92,109.26L91.05,110.98L91.59,111.59L91.84,111.52L92.33,110L93.04,109.29L93.42,107.67L93.26,106.24L93.84,105.59L94.82,106.35L95.29,105.62L95.77,106.57L96.03,106.72L96.61,106.43L97.21,106.87L99.09,105.84L99.88,105.71L100.39,106.28L100.53,107.32L101.75,108.17L102.33,109.59L104.34,111L104.65,110.96L105.09,109.89L106.8,109.89L108.24,110.68L108.78,110.57L110.2,108.91L110.16,107.74L111.51,107.46L113.64,107.65L115.49,109.36L116.06,109.41L117.4,107.86L118.57,108.28L119.75,108.19L119.33,105.95L119.71,105.12L120.09,104.99L121.68,105.64L122.93,107.39L123.68,107.73L124.46,108.56L126.72,109.1L129.29,109.11L130.93,111.7L129.95,112.12L130.35,112.7L130.11,113.38L129.19,113.62L129.71,116.19L131.06,117.43L132.66,117.43L133.73,116.95L134.46,117.09L135.32,117.87L136.33,119.71L136.47,120.3L135.68,121.56L136.1,122.79L134.41,123.05L133.95,124.38L132.93,125.35L133,126.52L132.29,127.79L132.56,129.55L131.59,130.87L132.27,131.86L133.19,132.37L135.45,131.28L136.46,131.7L138.24,131.77L138.93,132.48L140.04,132.72L141.08,134.01L142.48,135.08L143.77,134.81L144.41,135.7L145.61,135.67L145.7,136.45L147.04,137.66L146.83,138.42L148.31,140.6L148.74,140.39L148.38,139.49L149.23,138.74L149.36,138.05L148.9,136.24L148.89,134.36L147.9,133.21L148.09,131.85L148.87,130.42L148.52,128.36L149.62,129.07L150.37,129.21L153.47,128.81L153.12,129.21L152.31,129.24L152.03,130.73L151.12,131.46L151.04,131.94L151.58,134.6L153.28,137.67L153,137.95L151.71,137.55L150.35,139.53L150.26,140.96L150.77,143.44L150.62,144.07L149.3,144L148.76,145.47L148.65,146.73L149.19,148.34L150.42,150.46L153.12,153.9L154.41,155.01L154.73,156.13L154.58,156.77L153.43,158.1L152.84,160L152.59,162.02L153.54,168.04L153.55,172.24L153.14,173.46L152.81,178.14L153.38,180.88L153.94,182.05L156.85,185.76L160.93,189.74L160.85,190.1L159.89,189.89L159.25,190.28L159.52,191.25L159.95,191.28L160.15,190.62L160.42,191.41L160.5,192.24L160.17,192.76L160.46,193.02L159.61,193.42L159.82,193.84L160.21,193.58L160.32,194.02L159.43,194.26L159.29,195.21L159.56,195.43L160.48,195.33L160.46,195.92L161.1,197.28L160.62,198.03L160.09,197.8L159.74,198.07L159.15,197.95L154.77,195.74L153.77,194.52L152.37,194.29L149.93,192.94L146.78,193.54L141.33,195.65L134.17,192.54L127.14,184.31L123.4,183.21L122.78,181.07L121.56,180.73L113.89,175.66L110.86,171.76L101.9,169.41L100.85,168.42L99.99,168.46L97.89,169.71L96.85,167.33L94.82,167.07L93.94,165.54L92.64,165.2L92.11,165.52L91.89,166.08L91.06,165.65L89.91,165.68L87.84,164.52L86.2,161.99L85.5,161.52L85.81,160.47L86.68,159.46L86.32,157.95L85.51,156.38L86.46,154.68L87.46,154.19L87.67,152.17L86.81,151.27L85.99,149.29L84.85,148.13L84.32,147.86L82.49,147.81L81.36,147.12L80.07,145.45L79.7,144.69L78.66,144.26L78.76,142.92L79.18,142.07L78.89,140.97L78.09,140.28L78.02,136.56L77.23,135.46L77.41,134.73L78.26,133.53L78.24,132.96L76.26,131.29L75.29,131.13L74.85,129.58L75.28,127.89L73.72,127.72L73.2,127.28L73.05,126.6L73.47,126.09L72.76,124.96L72.93,123.44L72.07,122.5L72.63,121.17L72.52,120.88L70.73,120.05L69.35,120.35L68.91,119.19L68.19,118.75L69.19,117.48L69.48,116.4L70.32,115.8L70.27,115.42L69.27,114.75L69.04,112.83L69.46,112.01L70.4,111.69Z" style="fill:rgb(204,204,204);fill-rule:nonzero;stroke:white;stroke-width:0.5px;"/>
            <path id="MY.-07" d="M25.58,76.74L26,77.18L26.94,77.28L27.09,78.36L28.46,78.99L27.28,80.57L27.21,81.84L25.97,85.51L25.6,85.62L24.98,84.77L23.7,84.43L22.16,84.68L21.98,85.27L21.68,84.72L21.85,83.7L22.42,83.51L22.38,82.24L21.91,80.22L21.92,77.68L21.58,76.92L21.76,76.76L23.04,77.46L24.11,77.24L24.82,76.53L25.58,76.74ZM28.52,72.7L30.27,72.5L31.45,73.18L32.59,73.12L33.89,73.49L34.92,73.1L35.83,73.49L35.72,81.14L36.7,90.25L36.52,90.44L34.81,90.06L33.77,90.46L30.2,90.68L31.57,89.19L31.36,88.86L31.63,87.01L31.03,85.11L31.34,84.47L31.08,83.4L30.74,83.09L30.85,82.42L29.21,80.43L29.11,79.93L29.6,78.94L29.85,77.33L29.07,73.85L28.15,72.93L28.52,72.7Z" style="fill:rgb(204,204,204);fill-rule:nonzero;stroke:white;stroke-width:0.5px;"/>
            <path id="MY.-08" d="M39.33,110.09L41.25,111.78L40.67,112.4L40.85,113.39L39.33,113.87L37.97,113.35L38.32,111.34L39.33,110.09ZM39.5,105.71L41.06,106.42L41.35,107.12L40.35,109.01L39.69,108.92L38.52,109.32L37.88,107.43L37.78,105.97L38.09,105.41L39.5,105.71ZM78.34,58.37L80.01,59.78L80.51,60.57L81.58,60.87L81.65,63.16L82.83,64.53L83.2,65.39L83.67,65.19L84.11,64.36L85.45,63.82L87.2,65.93L88.07,66.26L88.03,65.21L88.37,64.27L89.05,64.16L90.33,63.28L91.19,65.31L92.22,65.94L92.37,66.45L92.91,66.6L93.26,67.26L93.89,66.98L94.17,67.14L93.69,68.15L94.44,69.6L94.04,70.68L93.41,70.88L93.18,71.5L94.14,72.3L93.95,74.37L95.15,74.57L94.8,76.14L95.02,76.87L94.52,77.6L93.66,78L93.79,79.62L91.48,81.99L87.15,81.75L84.85,79.85L85.17,81.15L84.46,82.2L82.36,82.95L80.56,82.45L79.74,81.54L79.15,81.36L78.75,82.6L78.02,83.28L77.84,84.36L76.7,85.19L75.98,85.21L76.11,86.24L75.5,87.1L75.62,87.85L74.71,89.23L74.55,92.66L73.78,93.42L73.49,94.84L73.05,95.4L73.13,95.96L72.24,96.83L72.28,97.26L73.13,98.02L73.32,100.01L72.66,101.24L73.06,101.61L71.76,101.94L71.4,102.32L71.57,103.83L70.95,105.44L70.06,105.89L70.34,107.68L68.81,107.68L68.49,108.16L68.69,109.09L70.43,111.66L69.5,111.96L69.08,112.78L69.31,114.7L70.31,115.37L70.36,115.75L69.52,116.35L69.23,117.43L68.23,118.7L68.95,119.14L69.39,120.3L70.77,120L72.56,120.83L72.67,121.12L72.11,122.45L72.97,123.39L72.8,124.91L73.51,126.04L73.09,126.55L73.24,127.23L73.76,127.67L75.32,127.84L74.89,129.53L75.33,131.08L76.3,131.24L78.28,132.91L78.3,133.48L77.45,134.68L77.27,135.41L78.06,136.51L78.13,140.23L78.93,140.92L79.22,142.02L78.8,142.87L78.7,144.21L79.74,144.64L80.11,145.4L79.12,145.35L79.16,146.38L78.88,146.76L78.59,146.62L78.33,146.85L78.03,148.18L77.17,148.53L76.73,149.3L76.18,149.42L74.26,147.95L73.05,147.46L72.62,146.53L70.81,145.52L70.48,145.59L70.34,144.76L69.28,144.31L68.48,144.59L68.04,145.35L68.85,147.53L68.82,148.49L67.34,149.34L66,149.63L64.82,149.37L64.9,147.61L63.59,148.01L62.81,147.6L61.93,147.84L61.18,146.6L60.97,147.06L60.37,146.84L60.64,146.36L60.3,145.9L59.8,146.67L59.4,146.58L59.19,147.01L58.61,146.62L57.98,147.23L58.01,145.89L58.92,146L58.42,145.04L57.52,146.04L57.25,146.02L57.14,144.57L56.04,144.97L55.87,144.25L54.83,144.24L54.45,144.47L54.11,145.38L53.54,145.32L53.18,144.58L53.76,143.54L52.34,142.85L52.24,141.58L50.89,142.04L47.88,142.34L47.12,144.07L47.52,141.91L46.86,141.82L45.76,142.35L44.88,142.16L43.29,141.11L42.91,139.83L42.9,136.51L43.3,135.99L45.17,135.47L45.45,134.37L45.23,132.75L42.52,129.8L41.24,129.34L40.19,129.34L39.76,129.9L38.81,128.55L39.09,127.6L38.53,127.13L38.34,126.44L39.67,126.85L40.71,126.4L41.37,125.52L41.5,123.44L41.12,123.29L40.87,125.65L40.21,126.24L38.35,125.87L38.17,124.46L37.73,123.73L37.02,123.74L38.11,121.13L38.2,119.61L38,119.43L38.37,118.87L38.55,119.18L38.96,119.1L39.21,118.55L39.58,115.05L40.61,114.26L41.09,113.2L40.88,112.39L41.28,111.74L39.61,110.11L41.06,108.71L41.61,106.89L41.31,106.25L39.15,105.16L39.23,104.67L39.83,104.08L39.67,102.44L38.15,102.23L37.7,101.5L37.04,101.67L36.61,101.44L36.79,100.56L36.14,100.21L36.23,99.98L36.53,99.92L37.01,100.41L37.57,100.24L37.78,100.04L37.71,99L37.39,98.88L36.78,99.25L36.45,98.7L36.07,98.7L35.83,98.92L36.05,99.46L35.46,99.39L35.68,99.93L35.5,100.08L34.95,99.36L33.51,98.89L32.36,99.38L31.84,98.74L31.5,98L31.4,96.31L30.73,96.21L29.84,93.78L29,92.43L29.21,91.83L29.95,91.38L30.17,90.67L33.74,90.45L34.78,90.05L34.43,90.57L34.63,91L35.05,90.85L35.36,91.12L35.23,91.97L35.96,92.26L36.5,92.07L37.19,92.45L38.27,90.93L39.36,90.71L40.01,89.18L41.5,88.64L41.78,87.97L41.55,87.62L42.38,86.03L42.98,85.98L44.23,85.23L44.21,84.25L44.56,83.47L47.34,83.18L48.77,81.97L49.19,80.12L49.08,79.46L49.57,78.64L49.88,76.64L50.42,76.01L51.11,76.18L51.71,75.9L52.64,73.93L52.4,72.4L51.95,71.87L51.92,71.33L52.57,70.68L52.81,69.8L53.62,69.74L54.12,67.39L53.89,66.83L52.91,65.97L52.85,64.92L53.1,64.68L54.26,64.85L54.43,64.11L55.48,64.84L56.05,65.86L57.15,65.88L57.44,66.13L59.81,69.56L60.26,71.17L61.86,69.79L63.14,69.32L65.21,67.19L65.32,66.49L64.92,65.3L65.46,63.88L66.19,63.05L66.68,62.95L67.58,63.45L69.73,62.34L70.74,60.78L74.41,60.63L76.62,59L78.34,58.37Z" style="fill:rgb(204,204,204);fill-rule:nonzero;stroke:white;stroke-width:0.5px;"/>
            <path id="MY.-09" d="M22.8,26.53L23.19,26.66L24,27.72L24.72,27.55L24.9,27.05L25.04,27.72L25.5,27.82L25.73,27.16L26.42,27.13L26.44,28.01L27.61,28.97L27.65,30.77L27.15,31.36L28.78,32.71L29,33.68L29.49,34.06L29.22,37.18L28.51,38.07L26.75,39.33L25.85,40.8L22.93,43.97L22.38,45.45L21.37,43.97L19.52,39.38L20.46,37.43L20.36,36.81L20.94,36.05L20.82,32.44L21.75,32.66L21.93,32.44L21.2,30.28L21.8,29.32L21.76,28.3L21.43,27.73L22.07,26.83L22.8,26.53Z" style="fill:rgb(204,204,204);fill-rule:nonzero;stroke:white;stroke-width:0.5px;"/>
            <path id="MY.-10" d="M93.06,172.56L93.62,170.81L93.14,169.83L92.99,168L92.51,167.2L92.41,166.35L91.93,166.07L91.1,165.64L89.95,165.67L87.88,164.51L86.24,161.98L85.54,161.51L85.85,160.46L86.72,159.45L86.36,157.94L85.55,156.37L86.5,154.67L87.5,154.18L87.71,152.16L86.85,151.26L86.03,149.28L84.89,148.12L84.36,147.85L82.53,147.8L81.4,147.11L80.11,145.44L79.12,145.39L79.16,146.42L78.88,146.8L78.59,146.66L78.33,146.89L78.03,148.22L77.17,148.57L76.73,149.34L76.18,149.46L74.26,147.99L73.05,147.5L72.62,146.57L70.81,145.56L70.48,145.63L70.34,144.8L69.28,144.35L68.48,144.63L68.04,145.39L68.85,147.57L68.82,148.53L67.34,149.38L66,149.63L64.82,149.37L64.9,147.61L63.59,148.01L62.81,147.6L61.93,147.84L61.18,146.6L60.97,147.06L60.37,146.84L60.64,146.36L60.3,145.9L59.8,146.67L59.4,146.58L59.19,147.01L58.61,146.62L57.98,147.23L58.01,145.89L58.92,146L58.42,145.04L57.52,146.04L57.25,146.02L57.14,144.57L56.04,144.97L55.87,144.25L54.83,144.24L54.45,144.47L54.11,145.38L53.54,145.32L53.18,144.58L53.76,143.54L52.34,142.85L52.24,141.58L50.89,142.04L47.88,142.34L47.12,144.07L47.59,145.12L49.13,145.29L50.62,146.26L51.44,147.2L52.31,149.2L54.34,149.81L56.28,151.53L57.24,152.9L58.76,156.68L62,161.18L62.46,162.4L64.59,163.63L66.27,165.34L67.1,167.79L67.42,171.24L69.4,173.89L69.21,175.83L69.55,176.35L70.53,176.3L70.75,176.84L69.69,178L69.3,179.62L69.83,180.14L70.16,180.03L70.41,178.81L71.08,178.16L71.48,177.26L71.92,177.24L72.55,177.74L71.21,178.87L71.95,179.13L72.25,179.73L71.84,179.93L71.46,180.65L71.99,181.33L72.12,180.04L73.04,180.51L73.14,180.88L72.77,181.72L71.98,181.81L71.92,182.42L71.58,182.54L71.56,184.05L71.15,184.51L72.1,185.44L73.45,188.03L74.3,188.87L76.58,189.9L78.15,190.27L79.41,191.07L81.89,191.7L82.88,192.6L83.57,192.41L83.62,192.12L84.48,191.84L84.42,190.95L85.03,190.37L84.87,189.83L85.42,188.88L85.57,187.62L85.05,181.52L89.96,181.69L90.63,180.88L92.84,175.87L93.95,175.19L93.98,174.53L93.06,172.56ZM83.98,181.23L83.23,181.66L81.73,181.77L81.3,181.13L80.98,179.96L80.8,178.68L81.62,178.57L83.22,178.78L84.08,180.06L83.98,181.23ZM85.35,169.12L85.19,169.15L84.93,169.22L84.82,169.29L84.81,169.54L84.85,169.75L84.9,170L84.83,170.38L84.69,170.6L84.61,170.74L84.62,171.13L84.68,171.46L84.8,171.72L84.97,171.87L85.15,172.04L85.28,172.29L85.27,172.54L85.15,172.77L85.06,173.13L85.05,173.29L85.15,173.41L85.15,173.97L85.14,174.15L85.03,174.23L84.89,174.27L84.81,174.28L84.68,174.33L84.57,174.39L84.5,174.47L84.45,174.54L84.43,174.69L84.41,174.81L83.22,175.12L81.22,174.58L81.01,173.45L80.8,173.02L79.84,172.17L79.2,171L79.2,170.04L80.06,168.98L80.47,167.86L80.58,167.63L80.64,167.5L80.75,167.43L80.9,167.4L81.15,167.43L81.36,167.53L81.49,167.62L81.66,167.68L81.87,167.72L81.98,167.71L82,167.55L82.05,167.47L82.13,167.4L82.23,167.33L82.4,167.28L82.57,167.34L83.01,167.58L83.29,167.71L83.48,167.69L83.58,167.64L83.92,167.38L84.05,167.17L84.12,167.09L84.19,167.03L84.35,166.96L84.5,166.91L84.58,166.88L84.69,166.91L84.76,167.04L84.73,167.12L84.64,167.19L84.61,167.28L84.55,167.37L84.48,167.52L84.56,167.66L84.75,167.8L84.92,167.97L85.13,168.1L85.23,168.23L85.42,168.71L85.45,168.95L85.35,169.12Z" style="fill:rgb(204,204,204);fill-rule:nonzero;stroke:white;stroke-width:0.5px;"/>
            <path id="MY.-11" d="M117.81,62.54L120.64,64.5L122.97,67.52L124.5,68.9L127.4,70.79L129.37,72.74L132.25,74.37L132.9,74.53L133.47,74.25L135.12,75.41L139.87,80.07L143.06,85.16L142.94,85.74L143.44,86.72L144.72,88.68L146.98,93.35L153.29,104.84L152.57,105.4L153.69,108.6L153.27,110.43L154.78,115.03L153.62,116.12L153.47,117.31L153.95,118.74L153.91,120.25L155.43,123.18L154.58,125.92L154.12,126.61L153.38,126.94L153.51,128.8L150.41,129.2L149.66,129.06L148.56,128.35L148.91,130.41L148.13,131.84L147.94,133.2L148.93,134.35L148.94,136.23L149.4,138.04L149.27,138.73L148.42,139.48L148.78,140.38L148.35,140.59L146.87,138.41L147.08,137.65L145.74,136.44L145.65,135.66L144.45,135.69L143.81,134.8L142.52,135.07L141.12,134L140.08,132.71L138.97,132.47L138.28,131.76L136.5,131.69L135.49,131.27L133.23,132.36L132.31,131.85L131.63,130.86L132.6,129.54L132.33,127.78L133.04,126.51L132.97,125.34L133.99,124.37L134.45,123.04L136.14,122.78L135.72,121.55L136.51,120.29L136.37,119.7L135.36,117.86L134.5,117.08L133.77,116.94L132.7,117.42L131.1,117.42L129.75,116.18L129.23,113.61L130.15,113.37L130.39,112.69L129.99,112.11L130.97,111.69L129.33,109.1L126.76,109.09L124.5,108.55L123.72,107.72L122.97,107.38L121.72,105.63L122.14,104.92L121.42,103.19L121.39,102.07L119.65,101L119.04,100.94L117.76,100L116.49,100.14L116.03,99.87L116.18,97.72L115.71,96.08L116.25,94.88L115.47,93L116.44,91.91L115.95,90.9L114.77,89.91L111.94,88.76L112.22,87.35L111.99,86.19L112.1,83.83L113.06,81.21L110.69,79.16L111.38,78.5L111.03,75.36L111.68,73.7L110.7,68.25L114.31,64.93L116.88,61.99L117.81,62.54Z" style="fill:rgb(204,204,204);fill-rule:nonzero;stroke:white;stroke-width:0.5px;"/>
            <path id="MY.-12" d="M713.55,29.16L714.09,28.39L715.44,28.25L716.84,28.55L717.99,27.74L717.5,27.24L716.33,26.95L716.01,26.12L716.17,25.78L717.26,25.27L718.43,25.58L719.46,25.12L720.36,27.1L721.01,27.87L721.03,28.66L720.65,29.22L719.81,29.77L718.68,29.94L717.78,30.57L716.42,30.7L715.79,30.19L714.35,30.02L713.55,29.16ZM695.66,6.52L695.24,6.7L695.4,6.23L696.3,6.32L696.51,5.73L697.63,5.98L698.66,5.3L699.92,5.55L699.67,4.84L699.01,4.18L699.62,2.96L700.34,3.2L700.13,3.75L700.49,4.1L701.3,4.38L701.11,3.5L701.33,2.43L700.7,0.96L700.08,1.44L699.68,2.5L697.71,3.59L696.8,3.24L696.24,3.79L695.86,3.73L694.5,7.26L694.85,7.64L696.18,6.94L695.66,6.52ZM702.94,8.03L702.86,8.33L703.43,8.28L702.95,8.95L702.84,10.05L703.52,10.71L703.44,11.32L704.08,10.7L704.24,9.74L706.78,8.12L707.88,7.7L709.31,7.9L710.32,6.45L710.12,7.85L710.76,7.82L711.02,7L711.85,5.98L711.77,5.32L711.05,5.49L710.92,5.12L711.63,4.75L711.15,4.68L711.03,4.22L711.49,3.14L712.29,2.56L711.83,1.3L709.9,0.69L708.6,1.18L707.8,0.85L707.12,1.56L706.54,1.11L705.39,2.63L703.44,3.06L702.89,3.55L703.23,4.83L702.62,6.91L703.09,7.04L702.54,7.66L702.94,8.03ZM763.04,112.53L763.58,111.33L764.11,111.28L764.43,110.71L762.85,109.85L762.36,110.22L761.71,110.1L761.59,109.62L761.26,109.61L761.19,110.21L760.79,110.41L760.37,109.07L759.58,108.75L759.35,108.04L758.15,108.69L758.09,109.52L754.62,109.35L753.69,109.79L754.56,110.26L755.73,110.14L758.44,110.9L758.8,111.71L759.57,111.82L760.08,111.36L761.52,112.21L762.24,112.19L762.1,111.84L762.6,111.37L763.04,112.53ZM791.24,86.14L791.06,85.29L791.47,84.81L791.8,83.48L791.48,81.53L790.85,80.35L789.21,78.72L787.54,77.88L785.55,78.43L785.17,79.4L783.56,79.85L781.62,79.58L778.88,78.62L778.95,80.62L777.31,80.9L776.28,80.46L778.51,79.17L777.97,78.35L773.41,75.47L773.54,77.33L773.45,78.21L773.15,78.42L773,76.66L773.27,75.96L772.87,75.32L769.4,73.27L767.09,70.6L766.21,70.06L764.7,70.89L764.3,73.11L763.72,73.87L763.38,75.12L763.06,75.11L762.76,74.82L763.07,73.37L763.91,72.24L763.79,70.68L764.36,70.65L765.2,70.01L764.99,69.51L764,68.44L754.91,62.67L754.7,62.76L755,63.89L754.73,64.83L753.87,63.07L752.46,62.89L750.48,62.1L749.47,63.01L746.95,63.63L746.67,64.01L747.3,65.64L746.99,66.1L746.24,66.1L745.87,66.68L746.77,68.1L746.1,68.59L745.98,69.08L745.6,69.02L745.34,67.53L744.73,67.34L744.26,67.92L743.45,67.66L743.54,66.97L743.1,66.93L742.1,67.33L741.67,67.95L740.51,68.59L738.87,68.65L738.43,69.15L738.48,68.67L738.95,68.2L738.32,68.3L738.15,67.53L738.76,66.79L738.66,66.48L737.38,66.32L736.93,65.95L737.28,65.47L736.58,65.54L736.18,65.22L737.14,64.78L736.65,64.03L737.4,63.72L738.94,64L739.23,63.84L739,63.55L740.36,63.56L741.13,63.07L741.49,64.08L742.03,64.2L743.13,63.49L743.98,63.41L744.15,62.74L745.78,62.15L746.17,61.68L744.7,60.46L744.8,59.39L744.06,59.6L742.82,58.73L743.58,57.34L742.22,55.69L742.65,54.25L741.36,54.63L741.18,53.28L740.17,53.05L739.64,53.39L739.4,54.21L736.69,56.53L737,56.9L736.62,57.59L735.84,58L733.73,58.31L731,58.18L730.98,58.64L731.7,59.96L731.48,60.7L731.35,59.58L729.88,59.86L727.88,59.38L725.68,59.92L724.47,59.52L720.65,60.52L720.12,61.2L719.45,61.12L720.21,60.3L721.51,60.02L723.99,58.74L723.58,58.31L723.45,58.72L723.2,58.57L723.19,57.37L723.48,57.38L723.75,57.94L724,56.71L724.79,56.8L725.8,55.95L725.64,54.63L725.97,53.93L726.91,53.49L726.91,52.72L726.25,51.51L725.71,51.64L726.05,51.05L725.23,50.21L724.58,48.97L723.97,48.64L724.9,47.45L726.91,46.13L728.94,46.43L729.12,46.16L729.96,43.54L729.51,41.33L729.59,40.08L730.17,39.43L730.37,38.54L725.87,35.1L724.86,35.19L722.7,34.07L722.95,33.48L722.02,32.36L721.47,30.28L719.49,33.4L719.08,33.43L717.62,33.41L716.79,32.99L716.4,31.61L715.06,31.23L714.72,30.76L713.98,31.26L713.31,30.7L712.93,31.19L712.2,30.9L711.1,27.49L711.81,26.89L711.89,26.39L710.34,25.08L709.89,23.23L709.37,22.71L709.93,22.13L709.8,21.47L710.65,20.84L710.56,20.45L710.2,20.41L710.85,19.78L710.46,18.25L710.65,17.71L709.07,17.49L708.41,17.13L707.69,15.92L706.6,14.85L705.57,15.06L705.75,15.88L704.5,15.46L702.82,16.37L702.82,16.98L703.87,17.48L703.35,17.91L702.55,17.98L702.47,17.59L701.98,17.31L701.65,17.55L701.71,19.75L702.66,20.32L702.46,21.68L702.83,21.69L702.8,21.9L701.48,22.31L701.57,22.74L700.94,23.93L700.22,24.38L700.26,24.83L699.5,25.61L699.43,26.17L699.78,26.65L699.65,27.36L698.08,28.32L697.6,28.92L696.78,29L695.47,30.67L694.7,30.87L694.52,32.26L692.78,32.95L692,32.94L690.53,32.37L690.66,30.17L691.72,28.9L693.1,26.13L694.7,24.59L694.43,23.71L694.65,22.49L693.93,21.89L694.69,21.16L693.6,20.91L692.36,21.37L691.91,20.8L691.81,20.03L692.78,20.61L693.42,19.79L694.39,20.4L694.74,20.31L694.84,19.88L693.88,18.16L694,17.54L693.52,16.69L692.87,16.49L691.47,14.86L690.5,13.94L690.2,13.95L689.31,15.89L689.31,16.75L688.47,17L688.55,18.22L687.58,19.96L687.05,20.45L685.88,20.86L686.05,21.93L686.95,22.27L687.11,22.61L686.32,22.86L685.88,23.94L685.42,24.27L686.03,25.99L686.01,27.19L684.92,28.79L683.25,29.61L681.89,32.19L680.04,34.29L680.3,34.56L679.78,36.15L677.28,38.05L673.62,40.09L674.01,40.94L673.56,41.19L673.37,40.82L672.72,41.34L673.11,42.06L672.92,42.71L673.38,43.29L673,43.67L672.26,43.78L671.96,43.7L671.95,43.05L671.04,44.06L669.38,44.68L668.98,45.53L667.49,46.86L666.94,48.21L665.75,49.95L664.5,51L663.49,51.38L664.24,52.56L664.82,51.76L665.34,52.16L664.5,53.68L664.48,55.78L664.04,56.06L663.58,55.79L662.87,56.55L662.44,56.63L661.58,59.65L662,60.98L661.39,62.58L660.54,62.79L660.29,63.6L658.91,64.54L656.16,65.74L655.84,66.52L655.33,71.37L654.31,73.16L652.57,74.11L650.5,74.62L646.4,74.21L644.81,73.63L644.14,73.03L644.77,71.23L644.6,70.86L643.68,70.6L643,72.3L641.74,74.24L639.63,75.85L636.78,78.91L636.07,79.35L635.23,79.44L634.64,80.02L634.27,83.04L633.46,84.06L634.48,84.08L634.84,83.8L635.03,83.05L635.8,82.67L635,84.15L636.38,85.07L636.4,84.69L636.76,84.44L637.28,85.01L637.03,85.82L639.75,87.71L640.33,87.66L640.79,88.07L642.03,87.86L641.96,88.59L642.48,88.34L643.31,86.87L643.84,87.13L643.42,87.76L643.57,88.7L643.04,88.76L642,90.35L642.1,91.38L641.78,93.06L640.34,94.83L638.63,95.4L638.05,96.56L640,97.3L642.4,96.15L644.44,95.9L644.88,96.01L645.29,96.65L645.37,98.04L646.59,102.45L646.55,104.4L645.71,105.34L644.33,108.66L642.66,110.37L642.31,111.69L643.19,113.14L643.16,114.19L643.58,115L643.55,115.64L642.9,116.41L644.19,119L643.94,121.1L644.8,121.84L646.33,122.24L647.15,123.42L647.17,124.23L646.17,126.1L645.79,128.59L646.35,130.58L647.34,131.13L647.53,129.91L648.23,128.53L649.28,128.47L649.57,127.88L650.39,127.54L650.96,126.44L651.83,126.43L652.31,127.27L653.18,127.04L653.51,125.71L655.19,124.36L654.84,123.37L655.21,120.94L655.79,120.53L656.47,120.63L657.41,121.97L660.12,122.25L661.34,123.04L661.74,124.51L663.13,125.34L664.76,122.85L666.41,122.41L666.95,120.78L670.2,121.19L671.06,121.71L674.53,120.81L676.26,121.89L676.77,122.83L677.36,123.05L677.58,124.27L678.03,124.6L679.28,124.12L679.79,122.86L680.53,123.3L681.71,123.11L681.56,121.7L682.9,120.01L683.57,121.05L684.7,121.49L684.94,122.63L685.27,122.89L686.31,122.71L686.89,122.3L687.6,122.63L688.77,122.63L689.62,122.12L690.32,120.86L691.82,122.56L692.71,122.39L693.55,123.09L695.13,122.72L696.83,121.57L697.4,121.95L698.22,122.01L698.88,122.63L700.43,122.56L701.16,123.48L702.23,122.4L704.6,122.91L706.07,122.42L707.42,122.86L708.63,122.72L709.15,121.84L710.45,121.25L713.27,123.83L717.56,126.47L718.15,128.1L719.05,128.88L721.8,129.65L722.26,128.72L721.91,126.75L723.01,125.85L722.47,124.95L722.42,123.9L722.77,123.44L724.14,123.61L724.92,123.38L725.23,124.07L725.52,124.05L725.79,122.27L725.29,121.76L725.05,122.31L724.2,120.49L725.55,120.27L724.64,119.85L724.68,119.62L725.13,119.45L725.39,119.76L727.01,118.84L727.71,119.2L727.94,119.69L727.77,120.44L728.33,121.06L729.43,121.92L730.42,122.06L731.13,122.83L732.55,122.97L733.35,123.98L734.93,124.62L735.89,126.46L736.81,126.66L738.03,126.28L739.44,126.76L739.93,127.27L740.65,127.32L743.89,126.01L745.95,124.73L747.82,124.27L748.68,124.54L749.78,124.26L750.73,123.62L753.91,123.18L754.41,122.68L754.47,122.09L753.83,122.02L753.58,121.47L754.58,121.72L755.14,122.56L756.18,122.36L756.54,122.94L756.92,123.03L760.37,121.78L763.04,122.14L762.91,121.01L763.44,121.34L764.84,120.2L763.98,119.06L765.17,119.29L765.18,119.92L765.55,120.05L766.76,118.5L765.79,117.12L764.79,116.78L764.72,116.39L764.32,116.36L764.31,116.68L763.83,116.59L764.75,115.81L764.67,115.59L762.27,115.19L761.01,116.93L760.49,116.82L760.06,116.11L758.52,115.15L758.95,114.82L759.51,115.15L759.98,114.99L760.45,113.69L760.3,113.41L759.94,113.15L759.42,113.38L758.27,112.1L757.63,112.14L757.37,112.75L756.97,112.9L755.67,111.69L755.66,111.01L753.06,110.84L753.01,109.92L751.49,109.68L751.09,108.71L749.92,107.89L748.77,105.79L748.41,103.79L747.68,103.33L747.38,102.52L746.06,102.48L745.82,100.96L746.67,100.7L747.07,100.95L747.37,99.66L748.54,99.23L748.15,98.78L748.45,98.42L750.2,97.29L752.11,97.56L752.23,96.86L752.55,96.79L752.52,97.54L752.99,97.64L753.5,95.86L754.25,95.17L756.5,95.24L758.17,95.82L758.95,96.63L758.69,97.5L759.75,99.16L761.56,99.17L762.98,97.63L767.77,98.75L769.76,97.98L769.91,98.24L770.79,98.15L773.24,96.7L775.54,96.29L776.81,95.16L777.73,94.8L784.75,92.97L787.97,91.67L790.01,90.05L791.9,87.69L791.78,86.15L791.24,86.14ZM724.77,124.98L723.55,123.99L722.82,123.96L722.81,123.5L722.35,124.28L723.01,125.78L725.3,127.05L726.69,126.02L726.35,125.08L725.49,124.87L724.77,124.98ZM770.64,117.49L770.45,118.09L770.35,117.67L769.83,117.55L769.73,117.23L768.75,117.26L767.9,116.28L767.01,116.45L766.1,116.16L766.52,116.57L766.02,116.69L766.08,117L767.28,118.4L766.74,119.51L767.91,119.08L768.42,118.53L769.88,118.7L770.63,118.44L771.21,117.87L770.64,117.49Z" style="fill:rgb(204,204,204);fill-rule:nonzero;stroke:white;stroke-width:0.5px;"/>
            <path id="MY.-13" d="M437.74,231.08L438.67,231.36L439.52,233.29L439.34,234.06L439.06,234.39L437.77,233.69L437.09,234.63L436.94,235.21L437.56,235.52L438.06,234.84L438,235.59L438.76,235.71L438.82,235.98L437.99,236.11L437.61,235.69L436.43,236.17L435.5,235.57L435.15,234.09L435.7,234.35L436.07,233.71L435.71,233.34L436.59,233.24L436.9,232.81L436.54,231.6L437.74,231.08ZM428.62,228.03L429.09,228.32L429.52,228.16L429.61,228.61L429.26,229.23L430.22,230.19L429.45,230.95L428.46,231.33L427.83,229.54L426.6,229.31L426.34,228.81L426.65,228.42L428.62,228.03ZM438.28,226.47L439.19,227.54L438.09,228.19L437.76,229.18L437.94,229.54L437.35,229.81L437.5,230.4L437.98,230.53L437.1,230.83L436.27,231.54L436.28,232.22L436.64,232.79L434.6,233.5L434.16,232.91L433.52,233.03L433.5,232.4L432.73,232.29L432.22,230.79L432.76,230.51L433.39,230.17L433.19,228.92L433.69,228.74L434.48,228.89L435.17,229.25L435.79,228.22L435.9,227.3L436.97,227.11L437.31,227.59L437.83,227.51L438.28,227.24L438.03,226.7L438.28,226.47ZM431.57,224.21L432,224.54L431.67,225.32L432.33,226.12L432.24,227.72L433,228.28L433.26,230.13L432.18,230.64L431.71,229.58L431.89,228.33L431.39,227.83L430.72,227.84L430.18,226.99L430.88,226.07L430.89,225.36L431.57,224.21ZM472.96,208.28L473.07,207.87L473.74,207.74L473.67,208.23L474.26,208.56L474.6,208.8L474.04,209.21L473.8,208.8L473.36,208.81L473.27,209.63L472.02,210.29L471.7,211.71L470.31,210.86L468.3,210.35L466.86,210.47L465.71,210.96L464.7,210.08L465.02,208.97L466.55,207.94L467.12,206.97L468.25,208.71L469.02,208.88L469.69,208.54L469.99,207.61L469.73,205.11L470.64,205.35L472.09,206.35L472.32,207.24L472.32,208.07L472.67,208.41L472.96,208.28ZM468.39,198.88L468.19,200.04L468.61,199.59L471.6,200.91L470.55,202.15L471.24,203L470.53,203.3L469.46,205.15L469.7,208.19L468.74,208.65L468.44,208.56L468.12,207.51L467.22,206.54L466.74,206.48L466.05,207.1L465.91,206.72L466.04,204.75L465.74,201.74L466.3,200.5L467.07,199.64L468.39,198.88ZM474.22,187.65L473.81,186.22L474.62,185.67L474.22,187.65ZM471.82,184.23L473.94,187.33L473.67,188.99L473.84,191.3L473.58,196.81L474.32,197.98L474.66,200.15L475.37,201.09L475.08,201.65L473.66,201.55L472.99,202.53L472.26,201.64L472.07,200.25L470.52,199.19L470.45,197.79L470.86,195.9L469.67,190.6L469.65,188.1L469.98,186.51L470.98,184.68L471.82,184.23ZM494.06,181.41L498.68,180.73L505.05,179.31L509.81,177.9L519.07,175.91L521.52,175.49L522.18,175.7L523.74,174.79L526.09,174.05L535.92,171.78L539.28,169.92L540.1,169.23L542.02,166.56L541.27,165.63L545.25,162.44L546.87,159.65L550.65,156.41L551.25,155.46L550.87,154.81L554.05,151.41L555.77,148.52L556.2,147.57L556.05,146.76L556.53,145.99L561.34,142.82L567.02,138L569.76,135.03L572.03,131.29L576.35,126.06L577.92,123.24L578.21,122.15L577.81,121.6L578.73,120.46L579.26,118.38L579.16,116.06L578.08,112.85L578.7,112.32L584.55,112.61L586.34,113.23L587.29,114.46L587.77,114.3L588.96,114.93L590.05,116.34L591.84,119.44L591.81,121.27L592.66,122.05L592.16,123.81L592.21,125.12L593.51,125.59L594.64,125.06L596.04,125.5L596.81,124.74L597.46,124.74L597.95,126.82L599.58,129.86L601.01,130.02L601.64,130.67L602.82,132.88L603.79,133.49L605.11,133.71L605.24,134.12L604.5,135.15L605.16,135.31L606.8,134.8L608.65,133.71L610.94,130.86L612.49,129.58L612.57,129.31L611.69,129.42L611.75,128.75L613.77,126.07L614.2,124.81L612.78,125.69L612.77,124.81L614.13,123.27L615.18,121.17L615.24,119.2L613.66,118.74L612.94,117.96L612.37,110.18L612.21,109.17L611.33,107.71L611.47,106.2L612.06,105.84L613.21,105.73L613.65,105.36L614.26,103.82L614.78,103.48L618.78,102.56L620.02,100.22L620.8,99.83L621.09,100.81L619.99,102.11L619.6,104.62L620.03,104.74L620.24,102.32L620.83,101.57L620.83,102.91L621.92,104.15L621.38,105.55L621.77,106.82L621.61,107.93L622.36,111.31L622.88,112.16L624.2,116.42L624.04,117.72L624.33,120.17L624.8,120.5L626.12,120.34L628.22,121.1L629.79,120.98L630.1,121.21L630.31,122.28L631.56,122.12L632.37,122.61L632.95,123.55L633.42,123.67L634.27,123.25L634.85,122.69L634.89,121.97L633.89,120.47L631.76,118.63L631.36,117.63L631.56,116.94L631.05,115.06L631.03,113.68L631.66,112.78L631.84,111.53L631.66,110.38L630.58,109.49L630.9,108.49L630.33,107.67L630.45,106.23L629.48,104.97L629.73,103.59L627.37,101.6L627.45,101.15L626.92,101L626.19,99.58L625.71,99.21L627.77,98.49L627.99,98.08L627.88,97.12L629.11,96.86L629.53,97.18L630.02,98.58L630.52,98.96L631.86,99.24L632.86,99.9L634.48,99.74L635.72,98.92L635.57,98.02L636.04,97.9L637.18,96.73L638.05,96.57L640,97.3L642.4,96.15L644.44,95.9L644.88,96.01L645.29,96.65L645.37,98.04L646.59,102.45L646.55,104.4L645.71,105.34L644.33,108.66L642.66,110.37L642.31,111.69L643.19,113.14L643.16,114.19L643.58,115L643.55,115.64L642.9,116.41L644.19,119L643.94,121.1L644.8,121.84L646.33,122.24L647.15,123.42L647.17,124.23L646.17,126.1L645.79,128.59L646.35,130.58L647.34,131.13L647.58,131.19L647.26,133.28L646.21,136.69L645.55,137.77L644.88,138.26L643.17,138.54L642.75,138.86L643.45,139.97L644.71,140.75L645.09,141.41L643.56,146.02L643.19,149.76L643.56,152.13L644.44,153.24L644.75,155.87L646.23,158.34L645.24,159.73L644.54,158.3L643.56,158.18L642.13,161.01L641.43,163.53L641.52,166.24L641.07,167.75L642.79,169.04L642.75,169.72L640.87,171.5L640.82,173.74L640.49,174.34L639.43,175.05L637.44,175.19L636.05,176.83L633.05,176.89L632.74,175.63L631.58,174.39L631.03,176.14L630.06,177.19L628.61,177.77L627.91,178.61L626.84,179.07L626.49,181.28L624.25,183.35L624.17,183.55L624.74,183.89L625.61,183.88L625.97,184.44L625.51,185.27L625.55,186.27L624.1,187.47L624.64,189.89L624.38,190.89L623.69,191.43L623.71,191.89L624.49,192.86L625.14,192.81L626.36,192.07L626.81,192.17L628.35,193.96L628.46,194.81L629.45,195.21L629.49,196.46L627.74,197.57L626.42,197.39L625.24,197.64L623.87,198.89L623.48,200.24L621.87,200.21L620.65,201.66L619.54,202.35L618.65,201.67L618.16,201.79L617.52,203.52L618.18,204.35L618.15,204.74L617.14,205.23L616.47,205.99L612.4,206.37L611.85,206.68L611.17,209.55L611.16,211.37L611.45,211.91L612.34,212.3L612.41,212.89L611.97,213.45L611.96,214.67L612.53,215.84L612.94,215.88L614.38,215.07L615.4,215.56L615.51,216.04L613.82,217.85L613.88,218.58L614.91,219.71L614,220.53L612.67,220.59L611.12,222.4L609.55,221.77L608.57,222.19L608.64,223.15L607.55,224L608.19,225.2L608.01,226.19L608.33,227.27L607.97,229.48L606.86,230.57L606.01,232.41L604.08,233.51L603.69,235.03L604.04,235.97L603.85,236.86L602.2,239.27L601.08,239.12L599.36,237.72L598.42,237.66L595.59,235.85L595.26,235.86L594.6,236.87L591.79,237.84L590.97,238.47L589.06,238.69L587.66,240.23L587.26,239.65L584.96,237.97L583.8,238.31L582.63,238.02L580.22,238.73L578.6,238.42L577.35,238.9L576.83,239.75L572.28,241.63L572.08,242.07L572.48,243.14L571.63,244.51L567.5,246.07L565.78,247.75L564.46,247.81L564.15,247.58L564.15,246.7L563.16,246.17L562.45,244.47L560.79,243.65L558.98,243.98L557.61,244.49L556.9,245.14L556.18,245.22L554.94,243.95L553.87,243.5L553.2,242.16L550.04,241.06L547.93,240.9L546.01,241.37L544.52,240.87L543.61,239.38L542.99,238.9L539.66,240.2L537.99,240.21L537.79,239.24L538.17,238.57L540.31,237.62L540.78,236.05L541.64,235.14L541.31,234.3L538.85,233.34L538.13,233.88L537.55,233.9L535.84,233.72L535.18,233.24L534.21,233.09L532.7,234.92L530.93,234.82L530.62,234.36L529.64,233.95L528.95,234.23L528.1,233.93L525.93,234.33L524.95,233.74L524.14,233.98L518.63,233.31L516.76,234.34L516.04,235.53L512.83,236.43L511.56,236.34L509.8,237.74L507.58,238.29L506.95,238.71L506.56,240.1L507.68,241.07L506.95,243.08L505.67,244.52L505.49,246.21L505.02,246.84L505.24,247.61L505.09,248.34L504.43,249.27L504.75,250.07L504.59,250.58L504.02,250.86L502.29,250.85L496.49,251.72L495.76,252.91L494.25,253.94L493.74,254.79L493.42,256.37L491.9,256.39L490.63,255.84L490.07,256.51L489.33,255.73L487.64,256.1L487.28,255.55L485.25,254.72L484.43,255.06L482.17,256.84L480.98,256.89L481.04,258.09L480.75,258.46L479.87,258.13L479.17,256.3L477.79,255.16L477.13,255.13L475.87,255.97L474.25,256.01L472.56,255.06L468.57,253.87L467.86,253.25L466.26,253.98L464.03,254.48L460.81,254.72L459.41,255.27L454.74,255.5L454.04,256.21L453.96,256.85L452.39,258.61L450.42,258.76L450.33,259.18L450.7,259.86L450.44,260.42L449.77,260.26L449.35,259.54L448.96,259.4L448.51,260.46L447.09,260.33L445.9,261.2L444.88,261.45L444.31,261.22L444.08,260.43L443.68,260.27L443.13,261.71L441.05,262.41L437.71,261.48L435.96,260.17L435.56,259.6L435.73,258.89L434.49,258.58L434.4,257.52L433.92,256.86L432.65,257.18L431.61,256.67L429.15,256.7L429.25,254.71L428.58,254.49L427.89,253.28L427.73,252.12L426.43,251.85L426.36,250.5L425.79,249.59L424.07,248.64L421.93,248.68L421.38,248.05L419.71,248.39L419.75,247.97L420.67,247L420.52,246.21L418.2,244.78L417.18,244.62L416.42,242.07L416.39,240.79L414.97,239.69L411.2,239.59L411.09,238.26L411.44,237.26L410.46,237.9L410,237.78L409.21,236.44L405.65,232.87L405.37,232.23L404.56,231.94L404,231.14L404.5,227.25L405.16,225.29L404.8,224.9L401.9,224.12L401.16,222.65L400.03,222.16L399.41,219.66L399.94,219.33L400.7,219.37L401.45,217.75L402.66,217.02L403.23,216.12L403.79,214.43L404.21,214.96L403.8,216.17L404.6,217.09L403.95,217.2L403.92,219.88L405.31,221.45L405.2,222.08L406.9,223.07L408.94,223.78L409.45,224.19L411.7,225.02L412.06,225.67L413.29,226.39L412.87,227.29L415.02,228.5L414.18,228.35L413.81,228.64L415.57,229.08L416.41,228.47L417.08,228.78L417.13,229.42L418.33,228.61L422.95,228.6L426.04,228.28L426.13,229.22L427.89,229.86L427.88,230.44L428.32,230.83L428.22,231.25L428.56,231.83L430.44,230.46L429.94,229.05L431.35,228L431.87,228.41L431.63,229.71L432.74,232.37L433.56,232.55L433.56,233.13L434.29,233.21L434.36,233.78L433.93,234.01L434.16,234.35L434.67,234.21L435.13,233.41L436,233.7L435.75,234.23L435.4,233.91L435.15,234.1L435.22,235.13L435.45,235.6L436.46,236.24L437.64,235.82L438.07,236.24L438.98,236.04L438.87,235.66L438.23,235.53L438.4,234.62L437.88,234.79L437.59,235.46L437.19,235.17L437.23,234.81L437.89,233.92L438.84,234.57L439.37,234.58L439.9,233.11L440.91,232.64L442.69,232.65L447.57,234.68L448.05,235.96L447.88,237.26L444.32,239.03L443.97,240.11L444.67,240.83L446.5,239.85L448.26,240.68L447.46,239.97L446.53,239.61L444.7,240.59L444.31,239.75L448.43,237.61L448.86,236.74L448.96,234.16L449.79,233.41L450.4,233.42L453.34,235.03L455.99,235.64L457.54,236.59L458.66,237.58L459.85,239.51L461.15,240.48L463.39,240.98L465.3,242.15L466.28,241.74L467.25,240.88L468.61,240.73L469.1,241.12L469.75,242.85L471.38,243.49L471.5,243.1L470.85,242.1L470.82,240.97L470.34,240.53L468.13,239.86L466.6,240.22L465.41,241.04L463.81,239.8L461.05,238.65L459.89,236.19L458.96,235.58L458.21,235.58L458.42,234.88L458.21,233.62L459.13,230.44L460.06,229.36L461.49,229.47L462.51,229.09L464.25,229.47L464.55,230.9L465.27,231.39L466.82,230.89L467.96,231.82L469.87,231.64L469.05,231.24L467.99,231.3L466.92,230.39L465.18,230.81L464.72,228.85L463.44,228.43L462.88,227.67L462.83,227.14L461.92,226.2L462.6,225.17L463.59,224.88L463.93,224.4L464.11,223.77L463.93,223.65L463.2,224.71L462.7,224.76L462.6,223.64L465.24,218.28L465.37,216.84L466.92,212.59L467.79,213.43L468.65,213.77L469.87,213.52L470.68,214.14L471.26,214.05L472.52,212.67L472.86,210.22L473.84,210.7L475.11,210.27L476.11,210.86L476.29,210.63L475.11,209.97L473.83,210.4L473.43,209.87L473.58,208.99L474.7,209.68L474.99,209.12L474.82,208.64L473.9,208.08L473.91,207.62L473.12,207.75L472.73,208.14L472.38,206.31L470.6,204.49L471.54,203.04L471.47,202.59L470.86,202.09L471.65,201.57L472.69,202.89L473.54,202.78L474.07,201.79L475.09,201.99L476.15,201.28L478.31,202.64L477.77,201.69L475.16,199.76L475.06,198.12L474.2,196.88L475.06,196.72L477.28,197.46L478.6,196.72L478.95,198.06L480.35,199L480.92,198.81L481.29,197.81L482.03,198.59L482.52,198.77L482.74,198.42L482.01,198.26L481.71,197.59L481.23,197.49L480.37,198.73L479.23,197.75L478.93,196.44L478.31,196.34L477.14,196.89L474.5,195.13L474.49,193.93L475.36,191.16L475.8,188.44L477.57,187.6L478.22,186.55L482.56,184.57L484.05,182.35L484.62,182.35L484.97,183.13L488.3,184.48L488.44,184.23L485.77,182.87L491.4,181.54L494.06,181.41Z" style="fill:rgb(204,204,204);fill-rule:nonzero;stroke:white;stroke-width:0.5px;"/>
            <path id="MY.-14" d="M84.39,174.83L83.2,175.14L81.2,174.6L80.99,173.46L80.77,173.04L79.81,172.18L79.17,171.01L79.17,170.05L80.02,168.99L80.44,167.87L80.55,167.64L80.6,167.52L80.72,167.45L80.86,167.42L81.11,167.45L81.32,167.55L81.45,167.64L81.62,167.71L81.83,167.75L81.95,167.73L81.97,167.58L82.02,167.5L82.1,167.42L82.2,167.35L82.37,167.3L82.53,167.36L82.97,167.61L83.25,167.74L83.44,167.71L83.54,167.67L83.88,167.4L84.02,167.19L84.09,167.11L84.16,167.06L84.32,166.99L84.46,166.94L84.54,166.91L84.65,166.94L84.72,167.07L84.69,167.15L84.6,167.22L84.57,167.31L84.51,167.4L84.44,167.56L84.52,167.69L84.71,167.84L84.88,168L85.09,168.13L85.19,168.26L85.38,168.74L85.41,168.98L85.35,169.12L85.19,169.15L84.93,169.22L84.82,169.29L84.81,169.54L84.85,169.75L84.9,170.01L84.82,170.39L84.69,170.61L84.61,170.75L84.62,171.14L84.68,171.47L84.8,171.73L84.96,171.88L85.14,172.05L85.27,172.3L85.26,172.54L85.13,172.78L85.04,173.13L85.03,173.29L85.13,173.41L85.13,173.98L85.12,174.16L85.01,174.24L84.87,174.28L84.79,174.29L84.67,174.34L84.55,174.41L84.48,174.49L84.44,174.56L84.41,174.71L84.39,174.83Z" style="fill:rgb(204,204,204);fill-rule:nonzero;stroke:white;stroke-width:0.5px;"/>
            <path id="MY.-15" d="M624.42,86.91L624.85,86.92L624.95,87.21L624.53,87.34L624.03,86.82L624.42,86.91ZM632.92,85.09L632.85,85.29L632.06,84.96L632.44,84.53L632.84,84.61L632.92,85.09ZM629.4,80.44L629.62,80.68L629.14,81.33L629.18,82.08L630.48,84.56L629.91,85.04L629.09,84.98L629.18,85.54L629.61,85.73L629.41,86.31L628.77,86L628.37,85.05L627.77,84.82L627.14,85.07L626.27,86.07L625.7,86.12L626.18,84.22L627.09,82.49L628.65,80.55L629.4,80.44Z" style="fill:rgb(204,204,204);fill-rule:nonzero;stroke:white;stroke-width:0.5px;"/>
            <path id="MY.-16" d="M81.31,181.12L80.99,179.95L80.81,178.68L81.63,178.57L83.23,178.78L84.09,180.06L83.98,181.23L83.23,181.66L81.74,181.76L81.31,181.12Z" style="fill:rgb(204,204,204);fill-rule:nonzero;stroke:white;stroke-width:0.5px;"/>
        </g>
    </g>
</svg>
